<?xml version="1.0" encoding="UTF-8"?><svg id="object_summary" xmlns="http://www.w3.org/2000/svg" width="100" height="100" viewBox="0 0 100 100"><path d="M76.4,48.97h-18.14c-1.39,0-2.65,1.13-2.65,2.65s1.13,2.65,2.65,2.65h18.14c1.39,0,2.65-1.13,2.65-2.65s-1.13-2.65-2.65-2.65ZM58.26,35.11h18.14c1.39,0,2.65-1.13,2.65-2.65s-1.13-2.65-2.65-2.65h-18.14c-1.39,0-2.65,1.13-2.65,2.65s1.13,2.65,2.65,2.65ZM35.83,67.12c-1.89,0-3.4,1.51-3.4,3.4s1.51,3.4,3.4,3.4,3.4-1.51,3.4-3.4-1.51-3.4-3.4-3.4ZM49.18,44.93v-.13l3.28-1.51c1.01-.5,1.01-1.89,0-2.39l-3.28-1.51h-.13l-3.66-1.89c-2.14-1.01-3.78-2.77-4.79-4.79l-1.76-3.66c0-.13-.76-1.76-.76-1.76l-.76-1.64c-.5-1.01-1.89-1.01-2.39,0l-1.51,3.28c0,.13-1.76,3.78-1.76,3.78-1.01,2.14-2.77,3.78-4.79,4.79l-3.66,1.76h-.13l-1.64.88-1.64.76c-1.01.5-1.01,1.89,0,2.39l3.28,1.51h.13l3.66,1.89c2.14,1.01,3.78,2.77,4.79,4.79l1.76,3.66c0,.13.76,1.76.76,1.76l.76,1.64c.5,1.01,1.89,1.01,2.39,0l1.51-3.28c0-.13,1.76-3.78,1.76-3.78,1.01-2.14,2.77-3.78,4.79-4.79l3.66-1.76h.13ZM43.13,42.04c-3.15,1.51-5.67,4.03-7.18,7.18v.13c-1.51-3.28-4.03-5.8-7.18-7.31,3.15-1.64,5.67-4.16,7.18-7.18v-.13c1.51,3.15,4.03,5.67,7.18,7.18v.13ZM76.4,67.87h-25.07c-1.39,0-2.65,1.13-2.65,2.65s1.13,2.65,2.65,2.65h25.07c1.39,0,2.65-1.13,2.65-2.65s-1.13-2.65-2.65-2.65Z" fill="#fff"/></svg>