<svg xmlns="http://www.w3.org/2000/svg" height="100" width="100" viewBox="0 0 100 100" fill="#fff"><path d="M32 20h-8a4 4 0 0 0-4 4v8a4 4 0 0 0 4 4h8a4 4 0 0 0 4-4v-8a4 4 0 0 0-4-4m22 0h-8a4 4 0 0 0-4 4v8a4 4 0 0 0 4 4h8a4 4 0 0 0 4-4v-8a4 4 0 0 0-4-4m22 0h-8a4 4 0 0 0-4 4v8a4 4 0 0 0 4 4h8a4 4 0 0 0 4-4v-8a4 4 0 0 0-4-4M32 42h-8a4 4 0 0 0-4 4v8a4 4 0 0 0 4 4h8a4 4 0 0 0 4-4v-8a4 4 0 0 0-4-4m22 0h-8a4 4 0 0 0-4 4v8a4 4 0 0 0 4 4h8a4 4 0 0 0 4-4v-8a4 4 0 0 0-4-4m22 0h-8a4 4 0 0 0-4 4v8a4 4 0 0 0 4 4h8a4 4 0 0 0 4-4v-8a4 4 0 0 0-4-4M32 64h-8a4 4 0 0 0-4 4v8a4 4 0 0 0 4 4h8a4 4 0 0 0 4-4v-8a4 4 0 0 0-4-4m22 0h-8a4 4 0 0 0-4 4v8a4 4 0 0 0 4 4h8a4 4 0 0 0 4-4v-8a4 4 0 0 0-4-4m22 0h-8a4 4 0 0 0-4 4v8a4 4 0 0 0 4 4h8a4 4 0 0 0 4-4v-8a4 4 0 0 0-4-4"/></svg>