<svg xmlns="http://www.w3.org/2000/svg" height="100" width="100" viewBox="0 0 1000 1000" fill="#fff"><path fill-rule="evenodd" d="M710 240a25 25 0 0 1 24 24v246a78 78 0 0 1-17-5 120 120 0 0 1-23-15c-11-10-24-20-39-20a39 39 0 0 0-17 4v-67a8 8 0 0 0-9-9h-18a8 8 0 0 0-8 9v91a74 74 0 0 1-10 6 80 80 0 0 1-15 4V407a9 9 0 1 0-17 0v103a160 160 0 0 0-16 3V407a8 8 0 0 0-9-9h-35a8 8 0 0 0-8 9v130a8 8 0 0 0 9 7h12a140 140 0 0 0-4 16H372a8 8 0 0 0-8 9v10a8 8 0 0 0 10 7h132l-2 7a120 120 0 0 1-15 23c-9 12-19 24-19 39s10 27 20 40l6 8h-73v25a25 25 0 0 1-24 24h-29a25 25 0 0 1-24-24v-24h-53a25 25 0 0 1-23-24V264a25 25 0 0 1 24-24zM409 398h-1a8 8 0 0 1 6 2 8 8 0 0 1 2 7v128a8 8 0 0 1-9 9h-34a8 8 0 0 1-9-7V407a8 8 0 0 1 8-9h36zm51 0a8 8 0 0 1 8 9v128a8 8 0 0 1-9 9h-17a8 8 0 0 1-9-7V407a8 8 0 0 1 8-9zm172-43a8 8 0 0 1 5 3 8 8 0 0 1 2 6v8a8 8 0 0 1-2 7 8 8 0 0 1-6 2H373a8 8 0 0 1-9-8v-10a8 8 0 0 1 8-8zm54 170a54 54 0 0 0-31-15 54 54 0 0 0-30 15 90 90 0 0 1-19 12 95 95 0 0 1-22 5 55 55 0 0 0-31 10 51 51 0 0 0-11 32 93 93 0 0 1-5 22 90 90 0 0 1-12 18 54 54 0 0 0-15 31 54 54 0 0 0 15 30 90 90 0 0 1 12 19 95 95 0 0 1 5 22 55 55 0 0 0 10 31 51 51 0 0 0 32 11 93 93 0 0 1 22 5 90 90 0 0 1 18 12 54 54 0 0 0 31 15 54 54 0 0 0 30-15 90 90 0 0 1 19-12 95 95 0 0 1 22-5 55 55 0 0 0 31-10 51 51 0 0 0 11-32 93 93 0 0 1 5-22 90 90 0 0 1 12-18 54 54 0 0 0 15-31 54 54 0 0 0-15-30 90 90 0 0 1-12-19 95 95 0 0 1-5-22 55 55 0 0 0-10-31 51 51 0 0 0-32-11 93 93 0 0 1-22-5 90 90 0 0 1-18-12m13 83a7 7 0 0 1 10 0l10 10a8 8 0 0 1 0 10l-67 74a14 14 0 0 1-10 5 15 15 0 0 1-10-5l-37-36a7 7 0 0 1 0-10l10-10a7 7 0 0 1 10 0l26 26z"/></svg>