<svg xmlns="http://www.w3.org/2000/svg" height="100" width="100" viewBox="0 0 1000 1000" fill="#fff"><path d="M370 200H260a60 60 0 0 0-60 61v103a60 60 0 0 0 60 61h110a60 60 0 0 0 60-61V260a60 60 0 0 0-60-61zm-50 164h-10a52 52 0 0 1 0-104h10a51.5 51.5 0 1 1 0 103zm230 61h110a60 60 0 0 0 60-61V260a60 60 0 0 0-60-61H550a60 60 0 0 0-60 61v103a60 60 0 0 0 60 61zm50-164h10a51.5 51.5 0 0 1 0 103h-10a52 52 0 0 1 0-104zM370 487H260a60 60 0 0 0-60 61v102a60 60 0 0 0 60 62h110a60 60 0 0 0 60-62V548a60 60 0 0 0-60-61m-50 163h-10a51 51 0 0 1 0-102h10a51 51 0 0 1 0 102m471-37-24-2a3 3 0 0 1-2-3 260 260 0 0 0-10-25v-4l14-20a10 10 0 0 0-1-14l-26-25a10 10 0 0 0-7-3 22 22 0 0 0-6 3l-20 14a1.1 1.1 0 0 0-1 2h-2c-9-3-15-8-24-10a3 3 0 0 1-3-4l-3-22a11 11 0 0 0-6-11 4 4 0 0 0-3-1h-37a11 11 0 0 0-6 1c-3 3-7 7-7 10a134 134 0 0 1-2 23 3 3 0 0 1-3 3c-9 3-15 8-25 10h-3l-20-15a8 8 0 0 0-7-3c-4 0-4 1-8 3l-26 26a10 10 0 0 0-1 14c4 6 10 12 14 20a3 3 0 0 1 0 3c-2 10-8 16-10 25a3 3 0 0 1-2 3l-23 3a11 11 0 0 0-10 8v45a21 21 0 0 0 10 8 127 127 0 0 1 23 3 3 3 0 0 1 2 3c3 9 8 16 10 25 0 1 2 3 0 4l-14 20a10 10 0 0 0 1 13l26 27c3 3 4 3 8 3a20 20 0 0 0 7-3 220 220 0 0 1 20-15l2-1h1c10 3 16 8 25 10a3 3 0 0 1 3 3l2 24c1 8 4 10 10 10h38c7 0 10-3 10-10l3-24a3 3 0 0 1 3-2 260 260 0 0 0 25-10h1a1 1 0 0 1 1 0l20 15a10 10 0 0 0 7 3l8-3 26-26a10 10 0 0 0 0-14c-3-6-10-12-13-20a3 3 0 0 1 0-3c2-10 7-16 10-26a3 3 0 0 1 2-2l24-3c8 0 9-4 9-10v-38c0-10-3-12-9-14zm-145 91a58 58 0 0 1-58-58v-2a59 59 0 0 1 117 0 62 62 0 0 1-59 60"/></svg>