<svg xmlns="http://www.w3.org/2000/svg" height="100" width="100" viewBox="0 0 1000 1000" fill="#fff"><path d="M375 200c22 0 41 18 43 40a271 271 0 0 1 164 0c2-22 21-40 44-40h130c24 0 44 20 44 44v131c0 22-17 41-40 43a271 271 0 0 1 0 164c22 2 40 21 40 44v131c0 24-19 43-44 43H625c-22 0-41-18-43-40a271 271 0 0 1-164 0c-2 23-21 40-43 40H244c-25 0-44-19-44-43V626c0-23 18-42 40-44a271 271 0 0 1 0-164c-22-2-40-20-40-43V244c0-24 20-44 44-44zM244 615c-6 0-11 4-11 11v130c0 6 5 11 11 11h131c6 0 10-5 10-11V625c0-5-5-10-11-10H245Zm382 0c-6 0-11 4-11 11v130c0 6 4 11 11 11h130c6 0 11-5 11-11V625c0-5-5-10-11-10H625ZM500 260c-29 0-56 5-82 14v101c0 24-19 43-43 43H274a238 238 0 0 0 0 164h101c24 0 43 19 43 43v101a238 238 0 0 0 164 0V625c0-24 19-43 43-43h101a238 238 0 0 0 0-164H625c-24 0-43-19-43-44V274c-26-9-53-14-82-14m-256-27c-6 0-11 5-11 11v131c0 6 5 10 11 10h131c6 0 10-5 10-11V245c0-6-5-11-11-11H245Z"/></svg>