<svg xmlns="http://www.w3.org/2000/svg" height="100" width="100" viewBox="0 0 1000 1000" fill="#fff"><path d="M347 200a36 36 0 0 0-25 12 36 36 0 0 0-10 26 37 37 0 0 0 3 13 36 36 0 0 0 32 24h306a35 35 0 0 0 25-12 36 36 0 0 0 9-25 37 37 0 0 0-2-14 36 36 0 0 0-32-24zm-85 163a37 37 0 0 1 3-14 36 36 0 0 1 32-24h406a35 35 0 0 1 25 12 36 36 0 0 1 9 26 37 37 0 0 1-2 13 36 36 0 0 1-32 24H297a36 36 0 0 1-25-12 36 36 0 0 1-10-25m488 87H250c-28 0-50 22-50 50v250c0 28 22 50 50 50h500c28 0 50-22 50-50V500c0-28-22-50-50-50"/></svg>