<svg xmlns="http://www.w3.org/2000/svg" height="100" width="100" viewBox="0 0 100 100" fill="#fff"><path fill-rule="evenodd" d="M33.89 27.19c.25.57.82.9 1.47.9h8.33c.65 0 1.23-.33 1.47-.9l3.27-6.05a.8.8 0 0 0-.74-1.14H31.51c-.57 0-.98.65-.74 1.14l3.1 6.05Zm10.54 5.8h-9.72A14.75 14.75 0 0 0 20 47.7v16.34c0 2.7 2.21 4.9 4.9 4.9h24.32l3.58-2.65a6.36 6.36 0 0 1 .69-6.68 6.43 6.43 0 0 1 3.43-2.27v-5.36a3.59 3.59 0 0 1-2.14-3.32 3.73 3.73 0 0 1 2.28-3.41 3.8 3.8 0 0 1 1.9-.25 14.86 14.86 0 0 0-14.53-12.01m10.84 30.7v-.37zm-13.21-3.25v2.78c0 .49-.49.82-.98.82h-3.27c-.49 0-.65-.33-.65-.82v-2.7a13.6 13.6 0 0 1-5.07-2.04c-.65-.57-.82-1.14-.33-1.88l1.06-1.63c.25-.41.74-.65 1.23-.65.33 0 .57.08.82.25h.08c1.63.98 3.1 1.47 4.17 1.47 1.14 0 2.04-.57 2.04-1.23 0-.49-.33-1.31-3.43-2.37-2.78-.98-6.21-2.7-6.21-6.45 0-2.21 1.47-4.82 5.56-5.64V37.9c0-.49.25-.82.65-.82H41c.49 0 .98.33.98.82v2.45c1.63.41 3.43 1.23 4 1.63.33.16.49.57.57.98s-.08.82-.33 1.06l-1.23 1.47c-.33.41-.9.74-1.39.74l-.74-.16c-1.63-.9-3.02-1.39-3.92-1.39-1.39 0-1.96.65-1.96 1.06 0 .57.33 1.23 3.1 2.21 3.43 1.14 7.27 2.94 7.27 6.78.08 2.61-2.04 4.98-5.31 5.72Zm31.92 12.1a3.8 3.8 0 0 1 1.83-.46A4.26 4.26 0 0 1 80 76.04a3.97 3.97 0 0 1-6.76 2.8 3.97 3.97 0 0 1-1.16-2.8c0-.25 0-.5.06-.75l-5.27-3.9a6.67 6.67 0 0 1-7.8 0l-5.27 3.9.06.75c0 .78-.23 1.55-.67 2.2a3.95 3.95 0 0 1-4.05 1.69 3.95 3.95 0 0 1-3.1-3.11 4.1 4.1 0 0 1 .22-2.29c.3-.72.81-1.34 1.46-1.78a3.9 3.9 0 0 1 4.03-.21l5.04-3.73a6.77 6.77 0 0 1 .74-7.15 6.8 6.8 0 0 1 3.67-2.43v-5.74a3.83 3.83 0 0 1-2.29-3.55 3.96 3.96 0 0 1 5.46-3.66 4.12 4.12 0 0 1 2.14 2.14 3.96 3.96 0 0 1-1.99 5.08v5.74a6.82 6.82 0 0 1 3.67 2.43 6.9 6.9 0 0 1 1.43 4.17c0 1.04-.23 2.06-.69 2.98l5.04 3.73Zm-11.17-3.27a3.72 3.72 0 0 0 3.38-2.52 3.39 3.39 0 0 0-3.33-4.25 3.46 3.46 0 0 0-3.44 3.39c0 .29.05.58.11.86a3.52 3.52 0 0 0 3.26 2.53Z"/></svg>