<svg xmlns="http://www.w3.org/2000/svg" height="64" width="56" viewBox="0 0 5600 6400"><path fill="#084968" d="M511 1A506 506 0 0 0 4 508v5384c0 281 227 508 507 508h4578c280 0 507-227 507-508V2032L3706 1z"/><path fill="#023248" d="M5596 2035v100H4316s-631-126-613-671c0 0 21 571 601 571z"/><path fill="#83a4b3" d="M3706-1v1457c0 165 110 579 610 579h1280z"/><path fill="#fff" d="M4155 5047c0 43-8 86-23 130-16 42-41 80-77 113-35 32-80 59-137 79-56 20-125 31-205 31-44 0-87-4-128-11-40-7-77-17-112-31s-68-29-99-47c-30-18-58-38-83-61a68 68 0 0 1-23-54c0-18 6-35 18-50 13-17 31-25 52-25 7 0 14 1 22 4 8 0 16 5 22 11 42 37 91 68 148 94 56 25 119 38 189 38 54 0 99-7 135-20s65-29 86-49a186 186 0 0 0 61-139c0-38-10-70-31-95q-30-37-81-63c-32-18-70-32-113-43l-131-36c-44-13-88-28-131-43-42-16-80-35-113-59a275 275 0 0 1-110-227 291 291 0 0 1 117-239c37-30 81-53 131-68 50-17 105-25 164-25a686 686 0 0 1 307 74c29 16 55 34 79 54 17 14 25 32 25 54 0 18-7 35-20 50a67 67 0 0 1-50 22c-17 0-31-5-43-16-44-36-93-62-146-79s-107-25-162-25c-72 0-131 17-178 52-46 35-68 81-68 139 0 34 10 61 31 83 20 22 47 40 79 56 34 16 71 29 113 41a3698 3698 0 0 1 262 79c43 17 81 38 113 65 34 26 61 59 81 97s31 86 31 142zm-1054 0c0 43-8 86-23 130-16 42-41 80-77 113-35 32-80 59-137 79-56 20-125 31-205 31-44 0-87-4-128-11a643 643 0 0 1-211-78c-30-18-58-38-83-61a68 68 0 0 1-23-54c0-18 6-35 18-50 13-17 31-25 52-25 7 0 14 1 22 4 8 0 16 5 22 11 42 37 91 68 148 94 56 25 119 38 189 38 54 0 99-7 135-20s65-29 86-49a186 186 0 0 0 61-139c0-38-10-70-31-95q-30-37-81-63c-32-18-70-32-113-43l-131-36c-44-13-88-28-131-43-42-16-80-35-113-59a275 275 0 0 1-110-227 291 291 0 0 1 117-239c37-30 81-53 131-68 50-17 105-25 164-25a686 686 0 0 1 307 74c29 16 55 34 79 54 17 14 25 32 25 54 0 18-7 35-20 50a67 67 0 0 1-50 22c-17 0-31-5-43-16-44-36-93-62-146-79s-107-25-162-25c-72 0-131 17-178 52-46 35-68 81-68 139 0 34 10 61 31 83 20 22 47 40 79 56 34 16 71 29 113 41a3698 3698 0 0 1 262 79c43 17 81 38 113 65 34 26 61 59 81 97s31 86 31 142zm-1480-889a518 518 0 0 1 401 171c13 16 20 33 20 52s-7 36-20 50a67 67 0 0 1-50 22c-10 0-19-2-29-5-8-4-16-10-22-18-35-42-80-76-135-101-54-25-109-38-166-38a468 468 0 0 0-332 137c-41 43-73 95-97 155-23 59-34 124-34 196s11 136 34 196a448 448 0 0 0 429 292 398 398 0 0 0 301-137c6-7 13-13 22-16a64 64 0 0 1 79 16 72 72 0 0 1 15 77c-4 8-8 16-14 23a533 533 0 0 1-401 169 610 610 0 0 1-439-171 618 618 0 0 1-178-450c0-93 16-176 47-252a586 586 0 0 1 327-324q114-45 243-45h-1Z"/></svg>