<svg xmlns="http://www.w3.org/2000/svg" height="100" width="100" viewBox="0 0 1000 1000" fill="#fff"><path d="m714 698.9-25.8 52.3a15 15 0 0 1-13.4 8.4h-.8a15 15 0 0 1-13.3-10l-32.6-88.3-14.5 30A15.1 15.1 0 0 1 600 700h-55.3a111.2 111.2 0 0 0 220-1zM590.7 670l25.7-53.1a14.9 14.9 0 0 1 14.3-8.5 15.3 15.3 0 0 1 13.3 10l32.7 88.5 14.5-29.3a15 15 0 0 1 13.4-8.4h60a111.2 111.2 0 0 0-220.6.8zm-77.2 14a142 142 0 0 1 11.5-55.9H405a17 17 0 0 1-17-17v-16.9a17 17 0 0 1 17-17h157.5a140.6 140.6 0 0 1 92.3-34.6h4.4V408.3a16.9 16.9 0 0 0-16.9-16.9H523.5a51.1 51.1 0 0 1-50.9-51.4V221.6a17.1 17.1 0 0 0-17-16.9h-170a51 51 0 0 0-50.9 50.9v407.3a51 51 0 0 0 50.9 50.9h231.1a142 142 0 0 1-3.2-29.8m60.9-191.7a17.1 17.1 0 0 1 17 17v17a17.1 17.1 0 0 1-17 16.9h-170a17.1 17.1 0 0 1-17-16.9v-17a17 17 0 0 1 17-17zM353.8 611.1a17 17 0 0 1-17 17H320a17 17 0 0 1-17-17v-16.9a17 17 0 0 1 17-17h17a17 17 0 0 1 17 17zm0-84.8a17.1 17.1 0 0 1-17 16.9H320a17.1 17.1 0 0 1-17-16.9v-17a17.1 17.1 0 0 1 17-17h17a17.1 17.1 0 0 1 17 17zm26.2-101a17.1 17.1 0 0 1-17 17h-17a17.1 17.1 0 0 1-16.9-17v-33.9h-34a17.1 17.1 0 0 1-17-17v-17a17.1 17.1 0 0 1 17-17h34v-33.9a17 17 0 0 1 17-16.5h17a17.1 17.1 0 0 1 16.9 17v33h34a17.1 17.1 0 0 1 17 17v17a17.1 17.1 0 0 1-17 17h-34zM557.4 340h90a11.5 11.5 0 0 0 11.8-11.2v-.6a10.9 10.9 0 0 0-3.4-8.5l-112-112a10.5 10.5 0 0 0-8.4-3.4 11.6 11.6 0 0 0-11.9 11.3v90.6a33.9 33.9 0 0 0 33.9 33.8"/></svg>