<?xml version="1.0" encoding="UTF-8"?><svg id="Layer_1" xmlns="http://www.w3.org/2000/svg" width="100" height="100" viewBox="0 0 100 100"><path d="M78.16,24.46l-2.62-2.63c-.75-.75-2.12-.63-2.99.38l-29.27,29.39-6.23-7c-.75-.75-.75-1.75-.25-2.63l4.73-6.5c1.37-1.75,1.25-4.25-.12-6l-6.1-7.63c-1.87-2.25-5.23-2.5-7.35-.38l-6.48,6.5c-1,1-1.49,2.38-1.49,3.75.62,11.5,5.23,22.51,12.45,30.76l-9.96,10c-.87.88-1,2.25-.37,3l2.62,2.63c.75.75,2.12.63,2.99-.38l50.07-50.27c1-.88,1.12-2.25.37-3ZM78.16,64.85l-7.6-6.13c-1.74-1.38-4.23-1.5-5.98-.12l-6.48,4.75c-.75.63-1.87.5-2.62-.25l-2.99-2.75-10.59,10.63c7.6,5.13,16.69,8.5,26.15,9,1.37.12,2.74-.5,3.74-1.5l6.48-6.5c2.37-1.88,2.24-5.38-.12-7.13h0Z" fill="#fff" fill-rule="evenodd"/></svg>