<svg xmlns="http://www.w3.org/2000/svg" height="100" width="100" viewBox="0 0 1000 1000" fill="#fff"><path d="M484 226a80 80 0 0 0-58-25c-22 0-42 9-58 26l-5 8a10 10 0 0 1-16 0l-6-8a80 80 0 0 0-58-25 80 80 0 0 0-58 25 90 90 0 0 0 0 122l74 80 34 36a30 30 0 0 0 45 0l108-116a90 90 0 0 0 0-122zm-56 128c0 6-5 12-12 12h-35v35c0 6-5 12-12 12h-29c-6 0-12-5-12-12v-35h-35c-6 0-12-5-12-12v-29c0-6 5-12 12-12h35v-35c0-6 5-12 12-12h29c6 0 12 5 12 12v35h35c6 0 12 5 12 12zm360 109a39 39 0 0 0-27-11h-32v-13c0-7-3-13-8-18s-11-8-18-8-13 3-18 8-8 11-8 18v13H561v-13c0-7-3-13-8-18s-11-8-18-8-13 3-18 8-8 11-8 18v13h-32c-10 0-20 4-27 11s-11 17-11 27v13c0 3 0 7 4 9 2 2 6 4 9 4h335c3 0 7 0 9-4 2-2 4-6 4-9v-13c0-10-4-20-11-27h-2zM664 631c-6-6-13-11-21-14s-16-5-25-5c-13 0-26 4-36 11-11 7-19 17-24 29s-6 25-4 38q5 20 18 33c14 14 21 15 33 18 13 3 26 0 38-4s22-13 29-24 11-23 11-36-2-17-5-25-8-15-14-21m-22 68c-6 6-14 9-23 9s-13-2-18-5-9-9-12-14a40 40 0 0 1-2-19c0-6 4-12 9-17s10-8 17-9c6 0 13 0 19 2s11 7 14 12c4 5 5 12 5 18s-3 17-9 23m144-144H451c-3 0-7 0-9 4-2 2-4 6-4 9v193c0 10 4 20 11 27s17 11 27 11h283c10 0 20-4 27-11s11-17 11-27V568c0-3 0-7-4-9-2-2-6-4-9-4zm-99 190a99 99 0 0 1-123 13 97 97 0 0 1-36-44 107 107 0 0 1-6-56 92 92 0 0 1 27-50 98 98 0 0 1 50-27 90 90 0 0 1 56 6 97 97 0 0 1 60 90c0 19-10 51-29 69z"/></svg>