<svg xmlns="http://www.w3.org/2000/svg" height="100" width="100" viewBox="0 0 1000 1000" fill="#fff"><path d="M515 220h-30c-8 0-15 7-15 15v130c0 8 7 15 15 15h30c8 0 15-7 15-15V235c0-8-7-15-15-15m250 250H635c-8 0-15 7-15 15v30c0 8 7 15 15 15h130c8 0 15-7 15-15v-30c0-8-7-15-15-15M515 620h-30c-8 0-15 7-15 15v130c0 8 7 15 15 15h30c8 0 15-7 15-15V635c0-8-7-15-15-15M380 515v-30c0-8-7-15-15-15H235c-8 0-15 7-15 15v30c0 8 7 15 15 15h130c8 0 15-7 15-15m215-89c6 6 15 6 21 0l92-92c6-6 6-15 0-21l-21-21c-6-6-15-6-21 0l-92 92c-6 6-6 15 0 21zm22 148c-6-6-15-6-21 0l-21 21c-6 6-6 15 0 21l92 92c6 6 15 6 21 0l21-21c6-6 6-15 0-21zm-212 0c-6-6-15-6-21 0l-92 92c-6 6-6 15 0 21l21 21c6 6 15 6 21 0l92-92c6-6 6-15 0-21zm-71-283c-6-6-15-6-21 0l-21 21c-6 6-6 15 0 21l92 92c6 6 15 6 21 0l21-21c6-6 6-15 0-21z" opacity=".15"/></svg>