<svg xmlns="http://www.w3.org/2000/svg" height="100" width="100" viewBox="0 0 1000 1000" fill="#fff"><path d="M637 474a162 162 0 1 0 162 162 162 162 0 0 0-162-162m0 280a119 119 0 1 1 119-118 119 119 0 0 1-119 119zm63-188-90 33a16 16 0 0 0-10 10l-32 89a6 6 0 0 0 7 7l89-32a16 16 0 0 0 10-10l33-90a6 6 0 0 0-7-7m-63 92a22 22 0 1 1 22-22 22 22 0 0 1-22 22M476 500H341a19 19 0 0 0-19 18v37a19 19 0 0 0 19 18h95a209 209 0 0 1 40-73"/><rect width="73" height="73" x="200" y="200" rx="18"/><rect width="420" height="73" x="322" y="200" rx="18"/><rect width="420" height="73" x="322" y="350" rx="18"/><rect width="73" height="73" x="200" y="350" rx="18"/><rect width="73" height="73" x="200" y="500" rx="18"/></svg>