<svg xmlns="http://www.w3.org/2000/svg" height="100" width="100" viewBox="0 0 1000 1000" fill="#fff"><path d="M658.8 502.4A141.2 141.2 0 0 1 800 640v3.1a141.2 141.2 0 0 1-138 141.6h-3.2a141.2 141.2 0 0 1-3.1-282.3zm-5.6 38.6v1.1l-20.7 66.6a5.2 5.2 0 0 1-5.2 3.9H560a7.3 7.3 0 0 0-4.7 12.2l.7.6 53.9 40a6.9 6.9 0 0 1 2.5 6.5v1L587 740.5a6.6 6.6 0 0 0 9.4 8.1l.8-.6 58.3-43.2a6.9 6.9 0 0 1 7-.6l.9.6 57.9 43.2a6.5 6.5 0 0 0 10-6.5v-1l-25.6-67.9a7 7 0 0 1 1.4-6.8l.8-.7 53.9-40a7.1 7.1 0 0 0-3-12.7h-67.1a6.5 6.5 0 0 1-5.8-3v-.9l-20-66.2a6.5 6.5 0 0 0-12.7-1.3M448 220a248.8 248.8 0 0 1 248.1 248v3a183 183 0 0 0-31.7-3.9h-10v-2.5a205.7 205.7 0 1 0-170 206.1 174 174 0 0 0 11.5 40.7 244 244 0 0 1-47.9 4.7 248.1 248.1 0 0 1 0-496.1m2 141.3a13.2 13.2 0 0 1 12.8 12.9v82.7a13 13 0 0 0 3.4 10l47.6 49.1a12.6 12.6 0 0 1 0 18.1L496 552.2a12.4 12.4 0 0 1-17.9 0l-63-63.8a18 18 0 0 1-3.4-9.5V374.2a13.2 13.2 0 0 1 12.8-12.9z"/></svg>