<?xml version="1.0" encoding="UTF-8"?><svg id="Layer_1" xmlns="http://www.w3.org/2000/svg" width="100" height="100" viewBox="0 0 100 100"><path d="M52.54,42.64c0-.79.65-1.44,1.44-1.44s1.44.65,1.44,1.44-.65,1.44-1.44,1.44-1.44-.65-1.44-1.44ZM63.12,67.81h5.62v6.19c0,3.25-2.58,6-5.62,6h-26.25c-3.05,0-5.62-2.75-5.62-6v-6.19h5.62v.19c0,1.13.82,2,1.88,2h22.5c1.05,0,1.88-.88,1.88-2v-.19ZM52.81,75c0-1.75-1.17-3-2.81-3s-2.81,1.25-2.81,3,1.17,3,2.81,3,2.81-1.25,2.81-3ZM36.87,30c0-1.13.82-2,1.88-2h22.5c1.05,0,1.88.87,1.88,2v.31h5.62v-4.31c0-3.25-2.58-6-5.62-6h-26.25c-3.05,0-5.62,2.75-5.62,6v4.31h5.62v-.31ZM44.46,50.58h10.46c.4,0,.61-.4.4-.72l-2.85-4.54c-.14-.22-.47-.22-.61,0l-1.55,2.24c-.14.22-.47.18-.61-.04l-1.91-3.28c-.14-.25-.47-.25-.61,0l-3.17,5.52c-.22.36.04.83.47.83ZM74.38,37.81v22.5c0,2.07-1.68,3.75-3.75,3.75H29.38c-2.07,0-3.75-1.68-3.75-3.75v-22.5c0-2.07,1.68-3.75,3.75-3.75h41.25c2.07,0,3.75,1.68,3.75,3.75ZM41.36,52.02c0,.79.65,1.44,1.44,1.44h14.42c.79,0,1.44-.65,1.44-1.44v-11.54c0-.79-.65-1.44-1.44-1.44h-14.42c-.79,0-1.44.65-1.44,1.44v11.54ZM61.25,57.97c0-.78-.63-1.41-1.41-1.41h-19.69c-.78,0-1.41.63-1.41,1.41s.63,1.41,1.41,1.41h19.69c.78,0,1.41-.63,1.41-1.41Z" fill="#fff"/></svg>