<?xml version="1.0" encoding="UTF-8"?><svg id="Layer_1" xmlns="http://www.w3.org/2000/svg" width="100" height="100" viewBox="0 0 100 100"><path d="M59.22,25.98c-2.51-2.44-6.51-2.44-9.02,0l-24.06,23.6c-.84.81-2.17.81-3.01,0-.81-.79-.83-2.09-.04-2.91.01-.01.03-.03.04-.04l24.06-23.6c4.19-4.07,10.85-4.07,15.04,0,2.36,2.3,3.48,5.59,3.01,8.85,3.3-.47,6.64.62,9.02,2.95l.12.12c4.07,3.96,4.16,10.47.2,14.55-.07.07-.13.14-.2.2l-21.76,21.34c-.27.26-.28.7-.01.97,0,0,0,0,.01.01l4.47,4.38c.81.79.83,2.09.04,2.91-.01.01-.03.03-.04.04-.84.81-2.17.81-3.01,0l-4.47-4.38c-1.9-1.85-1.94-4.89-.1-6.79.03-.03.06-.07.1-.1l21.76-21.34c2.44-2.38,2.5-6.29.12-8.73-.04-.04-.08-.08-.12-.12l-.12-.12c-2.51-2.44-6.5-2.45-9.02,0l-17.93,17.58h0s-.24.25-.24.25c-.84.82-2.17.82-3.01,0-.81-.79-.83-2.09-.04-2.91.01-.01.03-.03.04-.04l18.18-17.83c2.44-2.38,2.49-6.29.1-8.73-.04-.04-.07-.07-.11-.11ZM56.21,31.88c.81-.79.83-2.09.04-2.91-.01-.01-.03-.03-.04-.04-.84-.82-2.17-.82-3.01,0l-17.8,17.45c-4.07,3.96-4.16,10.47-.2,14.55.07.07.13.14.2.2,4.19,4.07,10.85,4.07,15.04,0l17.8-17.45c.81-.79.83-2.09.04-2.91-.01-.01-.03-.03-.04-.04-.84-.82-2.17-.82-3.01,0l-17.8,17.45c-2.51,2.44-6.51,2.44-9.02,0-2.44-2.38-2.5-6.29-.12-8.73.04-.04.08-.08.12-.12,0,0,17.8-17.45,17.8-17.45Z" fill="#fff" fill-rule="evenodd"/></svg>