<svg xmlns="http://www.w3.org/2000/svg" height="100" width="100" viewBox="0 0 1000 1000" fill="#fff"><path d="M307 262h266a13 13 0 0 0 13-13v-36a13 13 0 0 0-13-13H307a13 13 0 0 0-13 13v37a13 13 0 0 0 13 12m302 263V385a91 91 0 0 0-90-91H363a91 91 0 0 0-92 90v25h166a15 15 0 0 1 15 15v167a15 15 0 0 1-15 15H271v73a14 14 0 0 0 15 13h182l140-166Zm103 26a63 63 0 0 0-89 7l-48 57 97 81 47-56a63 63 0 0 0-7-89M507 696a63 63 0 0 0 96 82l48-57-97-81Z"/><rect width="131" height="30" x="272" y="453" rx="10"/><rect width="92" height="30" x="272" y="528" rx="10"/></svg>