<svg xmlns="http://www.w3.org/2000/svg" height="100" width="100" viewBox="0 0 100 100" fill="#fff"><path fill-rule="evenodd" d="M27.6 22c-3 0-5.6 2.5-5.6 5.6v44.8c0 3 2.5 5.6 5.6 5.6h44.8c3 0 5.6-2.5 5.6-5.6V27.6c0-3-2.5-5.6-5.6-5.6zm8.8 9.7c.7-.2.6-.8.6-.8v-2c0-.7-.7-.9-1-.9l-2.6.2a8.8 8.8 0 0 0-2.8 1.1 5.4 5.4 0 0 0-2.3 4.1V45c0 1-.2 1.8-.8 2.3-.2.2-.7.5-2 .7-.4.3-.5.5-.5.7V52c0 .6.5.8.6.8.8.2 1.4.4 1.8.7a2.6 2.6 0 0 1 1 2V67a4 4 0 0 0 2 3.7c1.4.8 3 1.3 4.6 1.3h1c.8 0 1-.4 1-.6v-1.9c0-.6-.5-1-.8-1.1H36l-.2-.1-.7-.3c-.4-.3-.6-.8-.6-1.6V54.8c0-1.3-.4-2.3-1-3-.2-.3-.4-.6-.8-.8-.8-.8 0-1.3 0-1.3a4 4 0 0 0 1.2-1.4c.4-.6.6-1.5.6-2.6v-12c0-.9.1-1.4.5-1.7l.9-.2zm28.2 36.7c-.7 0-.6.7-.6.7v2c0 .7.7.9 1 .9l2.6-.2a8.8 8.8 0 0 0 2.8-1 5.4 5.4 0 0 0 2.3-4.2V55.1c0-1 .2-1.8.8-2.2.2-.2.7-.5 2-.8.4-.2.5-.5.5-.7V48c0-.6-.5-.7-.6-.7-.8-.2-1.4-.4-1.8-.7a2.6 2.6 0 0 1-1-2V33c0-1.5-.6-2.8-2-3.7A8.8 8.8 0 0 0 66 28h-1c-.8 0-1 .4-1 .6v1.9c0 .7.5 1 .8 1.2h.4l.7.3c.4.3.6.8.6 1.6v11.7a5 5 0 0 0 1 3c.2.3.4.6.8.8.8.7 0 1.2 0 1.2-.5.4-1 1-1.2 1.4-.4.7-.6 1.6-.6 2.6v12c0 1-.1 1.4-.5 1.7l-.9.3h-.5m-4.8-27a1.4 1.4 0 0 0-2-.8l-6 3c-1 .6-1 2.1.2 2.6l1.4.5-1.8 4.3-2.9-3.3a3 3 0 0 0-2.6-1 3 3 0 0 0-2.3 1.6l-4 8.3-.1.1v.1l-.4.7a2 2 0 0 0 .9 2.7l1.8.8a2 2 0 0 0 2.7-.9l.3-.7.1-.2 2-4.2 3.2 3.6c.6.8 1.7 1.2 2.7 1s1.9-.8 2.3-1.8l3.7-8.9 1.4.6a1.4 1.4 0 0 0 1.8-1.9z"/></svg>