<svg xmlns="http://www.w3.org/2000/svg" height="100" width="100" viewBox="0 0 1000 1000" fill="#fff"><path d="M390 320h220c5 0 10-2 14-6s6-9 6-14v-40a60 60 0 0 0-18-42 60 60 0 0 0-42-18H430a60 60 0 0 0-42 18 60 60 0 0 0-18 42v40c0 5 2 10 6 14s9 6 14 6m372-52a60 60 0 0 0-42-18h-20a10 10 0 0 0-7 3 10 10 0 0 0-3 7v40a80 80 0 0 1-23 57 80 80 0 0 1-57 23H390a80 80 0 0 1-57-23 80 80 0 0 1-23-57v-40c0-3-1-5-3-7s-4-3-7-3h-20a60 60 0 0 0-42 18 60 60 0 0 0-18 42v430a60 60 0 0 0 18 42 60 60 0 0 0 42 18h440a60 60 0 0 0 42-18 60 60 0 0 0 18-42V310a60 60 0 0 0-18-42M550 580l-47 23a72 72 0 0 0-32 32l-23 47a9 9 0 0 1-16 0l-22-47a72 72 0 0 0-32-32l-48-22a9 9 0 0 1 0-16l47-23a72 72 0 0 0 32-32l23-46a9 9 0 0 1 16 0l23 46a72 72 0 0 0 32 32l47 23c6 3 6 13 0 16m100 110-19 10a31 31 0 0 0-14 13l-10 20c-1 3-5 3-7 0l-10-20a30 30 0 0 0-13-13l-20-10a4 4 0 0 1 0-7l20-10a31 31 0 0 0 13-14l10-20c2-2 6-2 7 0l10 20a30 30 0 0 0 14 14l20 10c3 1 3 5 0 7m0-229-20 10a31 31 0 0 0-14 14l-10 20c-1 2-5 2-7 0l-10-20a30 30 0 0 0-13-14l-20-10a4 4 0 0 1 0-7l20-10a31 31 0 0 0 13-13l10-20c2-3 6-3 7 0l10 20a30 30 0 0 0 14 13l20 10c3 2 3 6 0 7"/></svg>