<svg xmlns="http://www.w3.org/2000/svg" height="100" width="100" viewBox="0 0 100 100" fill="#fff"><path d="M78.61 68.84a7.01 7.01 0 0 1 .28 7.39A6.8 6.8 0 0 1 72.75 80H27.12a6.78 6.78 0 0 1-6.14-3.77 7.38 7.38 0 0 1 .42-7.39l17.44-26.51V27.85h-.61a3.76 3.76 0 0 1-3.58-3.93v-.45a3.49 3.49 0 0 1 3.5-3.46h24.06a3.5 3.5 0 0 1 3.14 3.77v.62h-.01a3.74 3.74 0 0 1-4.18 3.28v14.3l17.49 26.86h-.06.01zm-35.7-19.46H57.4l-3.02-4.81V28.38H46v15.98l-3.1 5.02zm2.04 13.51a5.31 5.31 0 1 0 0 10.63 5.31 5.31 0 0 0 0-10.63m10.4-7.81a3.91 3.91 0 1 0 0 7.82 3.91 3.91 0 1 0 0-7.82"/></svg>