<svg xmlns="http://www.w3.org/2000/svg" height="100" width="100" viewBox="0 0 1000 1000" fill="#fff"><path d="M474 617a10 10 0 0 1 10 9v143a30 30 0 0 1-28 30H250a30 30 0 0 1-30-28V627a10 10 0 0 1 9-10zm296 0a10 10 0 0 1 10 9v143a30 30 0 0 1-30 30H547a30 30 0 0 1-30-28V627a10 10 0 0 1 9-10zm-374 42-1 1-58 63-27-25a8 8 0 0 0-10-1l-11 10a6 6 0 0 0-1 10l38 36a16 16 0 0 0 10 4 14 14 0 0 0 12-4l31-33 6-7 32-33a8 8 0 0 0 0-10l-11-10a8 8 0 0 0-10-1m295 0-1 1-58 63-27-25a8 8 0 0 0-10-1l-11 10a6 6 0 0 0-1 10l38 36a15 15 0 0 0 10 4 14 14 0 0 0 12-4l31-33 6-7 32-33a8 8 0 0 0 0-10l-12-10a8 8 0 0 0-10-1zM457 515a30 30 0 0 1 28 29v32a10 10 0 0 1-8 10H210a10 10 0 0 1-10-10v-30a30 30 0 0 1 28-31h230zm315 0a30 30 0 0 1 28 29v32a10 10 0 0 1-8 10H524a10 10 0 0 1-10-10v-30a30 30 0 0 1 27-31h230zM622 302a10 10 0 0 1 10 9v144a30 30 0 0 1-30 30H399a30 30 0 0 1-30-28V312a10 10 0 0 1 9-10h245zm-79 42-60 64-25-25a8 8 0 0 0-10-1l-12 10a6 6 0 0 0 0 10l37 36a16 16 0 0 0 11 4 14 14 0 0 0 11-4l32-33 6-7 31-33a8 8 0 0 0 0-10l-10-10a8 8 0 0 0-10 0zm79-144a30 30 0 0 1 30 29v31a10 10 0 0 1-10 10H359a10 10 0 0 1-10-9v-31a30 30 0 0 1 28-30h246z"/></svg>