<svg xmlns="http://www.w3.org/2000/svg" height="100" width="100" viewBox="0 0 100 100" fill="#fff"><path d="M36 20H26a6 6 0 0 0-6 6v8a6 6 0 0 0 6 6h10a6 6 0 0 0 6-6v-8a6 6 0 0 0-6-6m-4 14h-2a4 4 0 0 1 0-8h2a4 4 0 0 1 0 8m22 6h10a6 6 0 0 0 6-6v-8a6 6 0 0 0-6-6H54a6 6 0 0 0-6 6v8a6 6 0 0 0 6 6m4-14h2a4 4 0 0 1 0 8h-2a4 4 0 0 1 0-8M36 46H26a6 6 0 0 0-6 6v8a6 6 0 0 0 6 6h10a6 6 0 0 0 6-6v-8a6 6 0 0 0-6-6m-4 14h-2a4 4 0 0 1 0-8h2a4 4 0 0 1 0 8m45 7H67v-3.5a9 9 0 1 0-6 0V67H51a3 3 0 0 0-3 3v7a3 3 0 0 0 6 0v-4h7v4a3 3 0 0 0 6 0v-4h7v4a3 3 0 0 0 6 0v-7a3 3 0 0 0-3-3M64 52a3 3 0 1 1-3 3 3 3 0 0 1 3-3"/></svg>