<svg xmlns="http://www.w3.org/2000/svg" height="100" width="100" viewBox="0 0 1000 1000" fill="#fff"><path d="M490.6 402.1c124.2 0 224.3-37.3 224.3-83.1v-28.7c0-45.9-100.1-83.1-224.3-83.1s-224.3 37.3-224.3 83.1V319c0 45.9 100.1 83.1 224.3 83.1m224.3-16.2c0 24.4-45.4 45.3-112.9 56.4a165.2 165.2 0 0 1 87.5 41.2c16.2-11.5 25.4-24.5 25.4-38.4zM554.1 773.7a168.3 168.3 0 0 1-114.5-71.4c-98.8-6.6-173.3-32.1-173.3-63.2v59.2c0 45.8 100.1 83.1 224.3 83.1 30.2 0 58.9-2.2 85.2-6.2q-10.8 0-21.6-1.5ZM432 525.2a166.6 166.6 0 0 1 88-75q-14.4.6-29.4.6c-124.2 0-224.3-28.7-224.3-65V445c0 38.3 70.1 70.5 165.7 80.1Zm-16.7 123.5a166.4 166.4 0 0 1-1.5-75.6c-86.1-9-147.5-32.7-147.5-61v60.1c0 35.4 62.1 65.3 149 76.5"/><path fill-rule="evenodd" d="M777.5 775.8 689 688.2a124.7 124.7 0 1 0-201.9-146.5 125 125 0 0 0-23.2 85.8 124.8 124.8 0 0 0 136.5 111.9 125 125 0 0 0 60.7-23l87.8 87.8c3.6 3.8 9.7 4 13.5.3l.3-.3 13.9-13.9c3.8-4 4.2-10.2.8-14.5Zm-189.4-75.9a85.2 85.2 0 1 1 .4 0z"/></svg>