<svg xmlns="http://www.w3.org/2000/svg" height="100" width="100" viewBox="0 0 100 100" fill="#fff"><path d="M70 46.3H30a5 5 0 0 0-5 5V75a5 5 0 0 0 5 5h40.1a5 5 0 0 0 5-5V51.3a5 5 0 0 0-5-5zM56.2 73.1c-1.9 1.2-4 1.9-6.2 1.9s-1.5 0-2.2-.2c-3-.6-5.5-2.2-7.1-4.7l4.1-2.7a5.7 5.7 0 0 0 4 2.6c1.6.4 3.2 0 4.7-1a6.2 6.2 0 0 0-2.3-11.2c-1.6-.4-3.2 0-4.7 1l-.9.7 4.4 4.4H38.8V52.7l3.2 3.2 1.6-1.4a12 12 0 0 1 8.5-1.7c3 .6 5.5 2.2 7.1 4.7a11.4 11.4 0 0 1-3 15.7zM30 40v.5zm1.3 1.2h5c.7 0 1.2-.4 1.2-1.1 0-7.2 6.1-13.1 13.4-12.6 6.6.5 11.6 6.2 11.6 13v-.4c0 .7.5 1.1 1.2 1.1h5c.7 0 1.2-.4 1.2-1.1a20 20 0 0 0-21-20.1 20.4 20.4 0 0 0-19 20.1c.1.6.6 1.1 1.2 1.1z"/></svg>