<svg xmlns="http://www.w3.org/2000/svg" height="100" width="100" viewBox="0 0 100 100" fill="#fff"><path fill-rule="evenodd" d="M49.9 20a6.12 6.12 0 0 0-3.06 11.42v3.88h-7.65a16.82 16.82 0 0 0-5.35 32.77v4.28A7.65 7.65 0 0 0 41.49 80H58.7a7.65 7.65 0 0 0 7.65-7.65v-4.42a16.82 16.82 0 0 0-5.73-32.64h-7.65v-3.88a6.12 6.12 0 0 0-3.06-11.42ZM28.49 52.12c0-5.91 4.79-10.71 10.71-10.71h21.41a10.71 10.71 0 1 1 0 21.42H39.2a10.71 10.71 0 0 1-10.71-10.71m9.03 5.04c2.08 0 3.68-2.21 3.68-4.91s-1.59-4.91-3.68-4.91-3.68 2.21-3.68 4.91 1.59 4.91 3.68 4.91m28.53-4.91c0 2.7-1.59 4.91-3.68 4.91s-3.68-2.21-3.68-4.91 1.59-4.91 3.68-4.91 3.68 2.21 3.68 4.91"/></svg>