<svg xmlns="http://www.w3.org/2000/svg" height="100" width="100" viewBox="0 0 1000 1000" fill="#fff"><path d="M398 200H266a64 64 0 0 0-66 61v101a64 64 0 0 0 66 61h132a64 64 0 0 0 66-60V260a63 63 0 0 0-66-61Zm-55 162h-23a53 53 0 0 1-55-50 53 53 0 0 1 55-51h22a53 53 0 0 1 55 50 53 53 0 0 1-55 52Zm252 61h132a64 64 0 0 0 66-60V260a64 64 0 0 0-66-61H595a63 63 0 0 0-65 61v101a63 63 0 0 0 65 61Zm55-162h22a53 53 0 0 1 55 50 53 53 0 0 1-55 51h-22a53 53 0 0 1-55-50 53 53 0 0 1 55-50ZM398 484H266a63 63 0 0 0-66 61v101a63 63 0 0 0 66 61h132a63 63 0 0 0 66-60V544a63 63 0 0 0-66-60m-55 162h-23a45 45 0 0 1-9 0 50 50 0 1 1 9-100h22a45 45 0 0 1 9 0 50 50 0 1 1-10 100Zm322-162c-75 0-135 56-135 126 0 87 97 166 127 187a15 15 0 0 0 17 0c30-22 126-100 126-187 0-70-60-126-135-126m0 178a53 53 0 1 1 57-53 55 55 0 0 1-57 53"/></svg>