<?xml version="1.0" encoding="UTF-8"?><svg id="a" xmlns="http://www.w3.org/2000/svg" width="100" height="100" viewBox="0 0 100 100"><path d="M74,36c3.3,0,6,2.7,6,6v32c0,3.3-2.7,6-6,6H26c-3.3,0-6-2.7-6-6v-32c0-3.3,2.7-6,6-6h48ZM72.4,68.4c-2.3-5-8.2-14-18.9-8.5-1.4.8-6.9,3.3-6.9,3.3l-5.5,2.4c-2.7,1.5-8.6-.5-12.1-1.9-1-.5-1.9.8-1.4,1.8,2.2,5,8.1,14,18.9,8.5,6.66-3.38,12.34-5.58,12.4-5.6,2.7-1.5,8.6.5,12.1,1.9,1,.4,1.9-.8,1.4-1.9ZM72.4,51.9c-2.3-5-8.2-14-18.9-8.5-1.4.8-6.9,3.3-6.9,3.3l-5.5,2.4c-2.7,1.5-8.6-.5-12.1-1.9-1-.5-1.9.8-1.4,1.8,2.2,5,8.1,14,18.9,8.5,6.67-3.38,12.35-5.58,12.4-5.6,2.7-1.5,8.6.5,12.1,1.9,1,.4,1.9-.8,1.4-1.9ZM57,20c3.3,0,6,2.7,6,6v3c0,.6-.4,1-1,1h-4c-.6,0-1-.4-1-1v-3h-14v3c0,.6-.4,1-1,1h-4c-.6,0-1-.4-1-1v-3c0-3.3,2.7-6,6-6h14Z" fill="#fff"/></svg>