<?xml version="1.0" encoding="UTF-8"?><svg id="a" xmlns="http://www.w3.org/2000/svg" width="56" height="64" viewBox="0 0 56 64"><path d="M5.08,0c-1.35,0-2.64.53-3.59,1.49C.54,2.44,0,3.73,0,5.08v53.84c0,2.8,2.27,5.08,5.08,5.08h45.84c2.8,0,5.08-2.28,5.08-5.08V20.31L37.06,0H5.08Z" fill="#0e9dd3"/><path d="M56,20.35v1h-12.92s-6.24-1.24-6.06-6.69c0,0,.24,5.6,5.93,5.69h13.05Z" opacity=".1"/><path d="M37.02,0v14.56c0,1.66,1.11,5.79,6.11,5.79l12.87-.04L37.02,0Z" fill="#fff" opacity=".5"/><path d="M27.15,32c2.68,0,4.85,2.17,4.85,4.85v7.42c0,.94-.38,1.85-1.04,2.52l-6.16,6.17c-.67.67-1.57,1.04-2.52,1.04h-7.42c-2.68,0-4.85-2.17-4.85-4.85v-12.29c0-2.68,2.17-4.85,4.85-4.85h12.3ZM23.91,43.96c-1.07,0-1.94.87-1.94,1.94v4.21c0,.54.44.97.97.97s.97-.44.97-.97v-3.56c0-.36.29-.65.65-.65h3.56c.54,0,.97-.44.97-.97s-.44-.97-.97-.97h-4.21ZM16.14,40.53c-.54,0-.97.44-.97.97s.44.97.97.97h2.59c.54,0,.97-.44.97-.97s-.44-.97-.97-.97h-2.59ZM16.14,36.65c-.54,0-.97.44-.97.97s.44.97.97.97h9.71c.54,0,.97-.44.97-.97s-.44-.97-.97-.97h-9.71Z" fill="#e3f8ff"/></svg>