<?xml version="1.0" encoding="UTF-8"?><svg id="a" xmlns="http://www.w3.org/2000/svg" width="56" height="64" viewBox="0 0 56 64"><path d="M5.12,0c-1.35,0-2.64.53-3.59,1.49C.58,2.44.04,3.73.04,5.08v53.85c0,2.8,2.27,5.08,5.08,5.08h45.85c2.8,0,5.08-2.28,5.08-5.08V20.31L37.11,0H5.12Z" fill="#fcf2d9"/><path d="M55.98,20.35v1h-12.8s-6.31-1.26-6.13-6.71c0,.01.21,5.71,6,5.71h12.93Z" opacity=".1"/><path d="M37.07,0v14.56c0,1.66,1.11,5.79,6.11,5.79h12.8L37.07,0Z" fill="#ecb22e"/><path d="M27.15,32c2.68,0,4.85,2.17,4.85,4.85v12.3c0,2.68-2.17,4.85-4.85,4.85h-3.88c-.54,0-.97-.44-.97-.97s.44-.97.97-.97h3.88c1.61,0,2.91-1.3,2.91-2.91v-12.3c0-1.61-1.3-2.91-2.91-2.91h-12.3c-1.61,0-2.91,1.3-2.91,2.91v3.88c0,.54-.44.97-.97.97s-.97-.44-.97-.97v-3.88c0-2.68,2.17-4.85,4.85-4.85h12.3ZM15.82,42.54c3.12,0,5.64,2.53,5.64,5.64s-2.53,5.64-5.64,5.64-5.64-2.53-5.64-5.64,2.53-5.64,5.64-5.64ZM18.47,46.42c-.37-.38-.99-.39-1.37-.02l-2.13,2.06-.63-.61c-.39-.37-1-.36-1.37.02-.37.39-.36,1,.02,1.37l1.31,1.26c.38.36.98.37,1.35,0l2.8-2.71c.39-.37.39-.99.02-1.37ZM27.72,46.88c.49.05.87.46.87.97s-.38.92-.87.97h-3.34c-.54,0-.97-.43-.97-.97s.44-.97.97-.97h3.34ZM27.62,42.09c.54,0,.97.44.97.97s-.44.97-.97.97h-5.17c-.54,0-.97-.44-.97-.97s.44-.97.97-.97h5.17ZM17.97,36.32c.88,0,1.51.62,1.51,1.39,0,.99-.86,1.93-1.96,2.69-.44.3-.7.44-.95.44s-.52-.15-.96-.45c-1.1-.75-1.95-1.7-1.95-2.69,0-.77.63-1.39,1.51-1.39,1.05,0,1.39.96,1.4.98,0-.02.34-.98,1.4-.98h0ZM27.62,37.32c.54,0,.97.44.97.97s-.44.97-.97.97h-5.83c-.54,0-.97-.44-.97-.97s.44-.97.97-.97h5.83Z" fill="#d38d00"/></svg>