<?xml version="1.0" encoding="UTF-8"?><svg id="a" xmlns="http://www.w3.org/2000/svg" width="56" height="64" xmlns:xlink="http://www.w3.org/1999/xlink" viewBox="0 0 56 64"><defs><clipPath id="b"><rect width="56" height="64" fill="none"/></clipPath></defs><g clip-path="url(#b)"><path d="M5.08,0c-1.35,0-2.64.53-3.59,1.49-.95.95-1.49,2.24-1.49,3.59v53.84c0,2.8,2.27,5.08,5.08,5.08h45.84c2.8,0,5.08-2.28,5.08-5.08V20.31L37.06,0H5.08Z" fill="#d38d00"/><path d="M55.93,20.35v1h-12.8s-6.31-1.26-6.13-6.71c0,.01.21,5.71,6,5.71h12.93Z" opacity=".1"/><path d="M37.02,0v14.56c0,1.66,1.11,5.79,6.11,5.79h12.8L37.02,0Z" fill="#fff" opacity=".5"/><path d="M27.15,32c2.68,0,4.85,2.17,4.85,4.85v12.3c0,2.68-2.17,4.85-4.85,4.85h-12.3c-2.68,0-4.85-2.17-4.85-4.85v-12.3c0-2.68,2.17-4.85,4.85-4.85h12.3ZM19.59,44.48c-.37-.38-.99-.39-1.37-.02l-2.33,2.26-.85-.82c-.39-.37-1-.36-1.37.02-.35.36-.36.92-.05,1.3l.07.07,1.52,1.48c.38.36.97.36,1.35,0l3.01-2.91c.38-.37.39-.99.02-1.37h0ZM21.8,46.86c-.54,0-.97.44-.97.97s.44.97.97.97h5.83c.54,0,.97-.44.97-.97s-.44-.97-.97-.97h-5.83ZM21.8,42.09c-.54,0-.97.44-.97.97s.44.97.97.97h5.83c.54,0,.97-.44.97-.97s-.44-.97-.97-.97h-5.83ZM17.97,36.97c-1.06,0-1.39.95-1.4.98,0-.02-.35-.98-1.4-.98-.88,0-1.51.62-1.51,1.39,0,.99.85,1.94,1.95,2.69.44.3.7.45.96.45s.52-.15.95-.44c1.1-.76,1.96-1.7,1.96-2.69,0-.77-.63-1.39-1.51-1.39h0ZM21.8,37.32c-.54,0-.97.44-.97.97s.44.97.97.97h5.83c.54,0,.97-.44.97-.97s-.44-.97-.97-.97h-5.83Z" fill="#fcf2d9"/></g></svg>