<svg xmlns="http://www.w3.org/2000/svg" height="100" width="100" viewBox="0 0 1000 1000" fill="#fff"><path d="M761 408H660a40 40 0 0 0-40 40v25h-94V276c0-6-6-13-13-13H380v-24a40 40 0 0 0-40-40H239a40 40 0 0 0-40 40v101a40 40 0 0 0 40 40h101a40 40 0 0 0 40-40v-24h93v157h-93v-23a40 40 0 0 0-40-40H239a40 40 0 0 0-40 40v100a40 40 0 0 0 40 40h101a40 40 0 0 0 40-40v-24h93v157h-93v-23a40 40 0 0 0-40-40H239a40 40 0 0 0-40 40v101a40 40 0 0 0 40 40h101a40 40 0 0 0 40-40v-24h133c7 0 13-7 13-13V527h94v22a40 40 0 0 0 40 40h101a40 40 0 0 0 40-40V448a40 40 0 0 0-40-40m-421-68H239V239h101zm0 20v-20zm0 190H239V450h101zm0 20v-20zm0 191H239V660h101zm0 20v-20zm421-232H660V448h101zm0 20v-20z"/></svg>