<svg xmlns="http://www.w3.org/2000/svg" height="100" width="100" viewBox="0 0 1000 1000" fill="#fff"><path d="M798.8 583.2a105.3 105.3 0 0 1-105.2 105.2H389.1a162 162 0 0 0 12.5-35.2h292a70 70 0 0 0 0-140H342.9a105.3 105.3 0 0 1 0-210h213.8a57 57 0 0 0-6.7 26.2 55 55 0 0 0 .6 8.1H342.9a70 70 0 1 0 0 140h350.7A105 105 0 0 1 735 486a102.5 102.5 0 0 1 37.9 27.9 104.5 104.5 0 0 1 25.9 69.3M773 239.3a11 11 0 0 0-8.1 3.6l-90 101.2a3.6 3.6 0 0 1-2.8 1.2 3.5 3.5 0 0 1-2.5-1l-39.1-38.4a10.9 10.9 0 0 0-15.4 0L600 321.7a11.1 11.1 0 0 0 0 15.5l60.8 60a18.4 18.4 0 0 0 12.8 5.2 18 18 0 0 0 13.4-6L797 273a10.9 10.9 0 0 0-.6-15.4L780 242.5a11 11 0 0 0-7-3.2M288.2 537.6a88.4 88.4 0 0 0-88.2 88.6c0 61.3 63.1 117.5 82.6 132.3a9.3 9.3 0 0 0 11.6 0c19.5-15.3 82.2-71 82.2-132.3a88.4 88.4 0 0 0-88-88.8zm0 125.4a37.5 37.5 0 1 1 37.5-37.5 37.3 37.3 0 0 1-37.3 37.5z"/></svg>