<svg xmlns="http://www.w3.org/2000/svg" height="100" width="100" viewBox="0 0 1000 1000" fill="#fff"><rect width="110" height="66" x="310" y="355" rx="16"/><rect width="110" height="66" x="464" y="355" rx="16"/><rect width="110" height="66" x="618" y="355" rx="16"/><path d="M216 531h495c9 0 16-8 16-16v-33c0-9-8-16-16-16H282c-9 0-16-8-16-16v-77c0-9-8-16-16-16h-33c-9 0-16 8-16 16v143c0 9 8 16 16 16z"/><rect width="528" height="88" x="200" y="223" rx="16"/><path d="M266 668v-77c0-9-8-16-16-16h-33c-9 0-16 8-16 16v143c0 9 8 16 16 16h227v-66H283c-9 0-16-8-16-16z"/><rect width="110" height="66" x="310" y="575" rx="16"/><path d="M642 624a50 50 0 0 0-49 49 50 50 0 0 0 49 49 50 50 0 0 0 49-49 50 50 0 0 0-49-49m128-49H513a30 30 0 0 0-30 30v143a30 30 0 0 0 30 30h257a30 30 0 0 0 30-30V606a30 30 0 0 0-30-30zm0 138a34 34 0 0 0-34 34H548a34 34 0 0 0-34-34v-74a34 34 0 0 0 34-34h188a34 34 0 0 0 34 34z"/></svg>