<svg xmlns="http://www.w3.org/2000/svg" height="100" width="100" viewBox="0 0 1000 1000" fill="#fff"><path d="M678.3 399a204.4 204.4 0 0 0-408.3 0 102.2 102.2 0 0 0 8 195.1A205.1 205.1 0 0 0 474.1 745a196 196 0 0 0 70-12.5l-4.1-5.6a113 113 0 0 1-21.8-33.6 155 155 0 0 1-43.2 6.2 157.8 157.8 0 0 1-149.8-107.8 215.3 215.3 0 0 0 105.5 30 15.5 15.5 0 0 0 16 10h56.6a17 17 0 0 0 6.7-1.7 15.8 15.8 0 0 0 9-14.5v-34a17.6 17.6 0 0 0-16-18.1h-56.2a19 19 0 0 0-15.9 11.3c-62.5-3.4-106.7-30.6-113.5-59a223 223 0 0 1 10-51.1 220 220 0 0 0 32.7 0 220.8 220.8 0 0 0 171.5-83.9 174.4 174.4 0 0 0 82.8 68.1c1.1 3.3 3.4 6.7 4.5 10a221 221 0 0 1 13.6 77.3v4.6a102 102 0 0 1 41.1 16.1 104.6 104.6 0 0 1 58.6-18h3.9a98 98 0 0 0 10-43.9 102.1 102.1 0 0 0-67.8-95.9m13.3 393.1a25 25 0 0 1-35.3.6l-.6-.6-87.5-93.3a72.2 72.2 0 0 1 0-98.2 64.3 64.3 0 0 1 91-2.7l2.7 2.7 5 6.3a8.8 8.8 0 0 0 12.2 1.1l1.1-1.1 4.1-5.4.9-.9a63.5 63.5 0 0 1 90-3.7l3.7 3.7a72.2 72.2 0 0 1 0 98.2c-.2 1.2-56.9 61.2-87.3 93.3"/></svg>