<?xml version="1.0" encoding="utf-8"?>
<svg xmlns="http://www.w3.org/2000/svg" xmlns:xlink="http://www.w3.org/1999/xlink" x="0px" y="0px"
	 viewBox="0 0 85.8 35">
<style type="text/css">
	.st0{fill:#004990;}
	.st1{fill:#FFFFFF;}
</style>
<path class="st0" d="M0,0h85.8v35H0V0z"/>
<g>
	<g id="g2575_1_" transform="matrix(1,0,0,-1,406.03655,523.65508)">
		<path id="path2577_1_" class="st1" d="M-349.8,511.1l-7,4.1v-8L-349.8,511.1z"/>
	</g>
	<g id="g2555_1_" transform="matrix(1,0,0,-1,350.59415,537.15028)">
		<path id="path2557_1_" class="st1" d="M-326.1,516.9c-0.6,0.7-1.4,1.1-2.4,1.1c-1.6,0-2.8-1.4-2.8-2.9c0-1.7,1.2-3,2.9-3
			c0.9,0,1.7,0.4,2.3,1.1v-2.1c-0.7-0.4-1.5-0.6-2.3-0.6c-2.5,0-4.5,1.9-4.5,4.4c0,2.6,2,4.5,4.6,4.5c0.8,0,1.6-0.2,2.2-0.6
			L-326.1,516.9L-326.1,516.9L-326.1,516.9z"/>
	</g>
	<g id="g2559_1_" transform="matrix(1,0,0,-1,358.29635,540.36068)">
		<path id="path2561_1_" class="st1" d="M-329.4,518.3c0-1.6,1.3-2.9,2.9-2.9c1.6,0,2.9,1.3,2.9,2.9c0,1.6-1.3,2.9-2.9,2.9
			C-328.1,521.2-329.4,519.9-329.4,518.3 M-322,518.3c0-2.5-2-4.5-4.5-4.5c-2.5,0-4.5,1.9-4.5,4.5c0,2.5,2,4.5,4.5,4.5
			C-324,522.8-322,520.8-322,518.3"/>
	</g>
	<g id="g2567_1_" transform="matrix(1,0,0,-1,404.14695,538.66298)">
		<path id="path2569_1_" class="st1" d="M-349,517.6c-0.2,1.3-1,2.1-2.3,2.1c-1.3,0-2.2-0.9-2.4-2.1H-349z M-353.8,516.3
			c0-1.4,1-2.8,2.5-2.8c1.2,0,1.9,0.6,2.5,1.6l1.4-0.8c-0.8-1.5-2.3-2.3-3.9-2.3c-2.6,0-4.1,1.9-4.1,4.4c0,2.6,1.4,4.5,4.1,4.5
			c2.7,0,3.9-2,3.9-4.5v-0.3L-353.8,516.3L-353.8,516.3z"/>
	</g>
	<g id="g2571_2_" transform="matrix(1,0,0,-1,414.05225,540.36068)">
		<path id="path2573_2_" class="st1" d="M-353.3,518.3c0-1.6,1.3-2.9,2.9-2.9c1.6,0,2.9,1.3,2.9,2.9c0,1.6-1.3,2.9-2.9,2.9
			C-352,521.2-353.3,519.9-353.3,518.3 M-345.9,518.3c0-2.5-2-4.5-4.5-4.5c-2.5,0-4.5,1.9-4.5,4.5c0,2.5,2,4.5,4.5,4.5
			C-347.9,522.8-345.9,520.8-345.9,518.3"/>
	</g>
	<path id="path2565_1_" class="st1" d="M42.4,23.1l2.4-5.3h1.8l-4.2,8.7l-4.2-8.7H40L42.4,23.1z"/>
</g>
</svg>
