<svg id="f9e586fc-fae1-41be-87e6-2147dc577b25" data-name="2dfbc3b4-85aa-433d-8aab-38210a1900af" xmlns="http://www.w3.org/2000/svg" viewBox="0 0 855.35 145.08">
  <title>coveo.analytics.js</title>
  <rect width="855.35" height="145.08" style="fill: none"/>
  <g>
    <path d="M147.6,68.29a11.18,11.18,0,0,0-7.27-2.63A8.87,8.87,0,0,0,134,68.13a9.09,9.09,0,0,0-2.55,6.5,8.93,8.93,0,0,0,2.32,6.19,9.16,9.16,0,0,0,6.73,2.78,10.86,10.86,0,0,0,7.11-2.71V91A17.23,17.23,0,0,1,138.78,93a18.53,18.53,0,0,1-13.38-5.18,18.56,18.56,0,0,1,12.29-31.64q0.59,0,1.17,0a19.66,19.66,0,0,1,8.74,1.93V68.29h0Z"/>
    <path d="M188.67,87.46c-3.09,3.09-8.35,5.57-15.08,5.57s-12-2.47-15.08-5.57a18.49,18.49,0,0,1,0-25.67c3.09-3.09,8.35-5.57,15.08-5.57s12,2.47,15.08,5.57A18.49,18.49,0,0,1,188.67,87.46ZM167.32,68.13a9.54,9.54,0,0,0,0,13,8.58,8.58,0,0,0,6.35,2.47,8.45,8.45,0,0,0,6.19-2.47,9.54,9.54,0,0,0,0-13A9.16,9.16,0,0,0,167.32,68.13Z"/>
    <path d="M208,57.38l8.74,18.48,8.74-18.48h12.19L220.22,91.87h-7L195.78,57.38H208Z"/>
    <path d="M276.36,76.54H250.61a9.43,9.43,0,0,0,2.06,5.9,7.47,7.47,0,0,0,5.72,2.17,9.14,9.14,0,0,0,4.49-1,6.75,6.75,0,0,0,2.4-2.86l10.52,1.08a15.42,15.42,0,0,1-6.65,8.66c-3.33,2-7,2.55-10.9,2.55-5.18,0-9.74-.93-13.77-4.95a18.53,18.53,0,0,1-5.18-13.3,19.64,19.64,0,0,1,5.26-13.61c4.18-4.18,9.36-5,13.22-5s9.43,0.7,13.69,5.18c4.1,4.33,4.87,9.74,4.87,14v1.13h0Zm-10.28-6.65a8.78,8.78,0,0,0-2.24-4,8.17,8.17,0,0,0-10.9.31A7.75,7.75,0,0,0,251,69.91h15.08v0Z"/>
    <path d="M317,87.46c-3.09,3.09-8.35,5.57-15.08,5.57s-12-2.47-15.08-5.57a18.49,18.49,0,0,1,0-25.67c3.09-3.09,8.35-5.57,15.08-5.57s12,2.47,15.08,5.57A18.49,18.49,0,0,1,317,87.46Zm-21.3-19.33a9.54,9.54,0,0,0,0,13A8.58,8.58,0,0,0,302,83.6a8.45,8.45,0,0,0,6.19-2.47,9.54,9.54,0,0,0,0-13A9.16,9.16,0,0,0,295.67,68.13Z"/>
    <path d="M335.53,79a7,7,0,1,1-7,7A7,7,0,0,1,335.53,79Z"/>
    <path d="M377.06,57.38H388.2V91.87H377.06V87.7A11.49,11.49,0,0,1,366.85,93c-5,0-9.12-1.24-12.92-5.26a18.25,18.25,0,0,1-5-12.91A19.64,19.64,0,0,1,354.27,61a16.63,16.63,0,0,1,12-4.72c2.94,0,7.66.7,10.83,5V57.38h0Zm-14.15,10.9a8.62,8.62,0,0,0-2.56,6.26,8.89,8.89,0,0,0,2.32,6.2,9.14,9.14,0,0,0,6.57,2.71A8.25,8.25,0,0,0,375,81a9.15,9.15,0,0,0,.15-12.84,9.32,9.32,0,0,0-6.19-2.4,8.78,8.78,0,0,0-6.1,2.48h0Z"/>
    <path d="M396.86,57.38H408v4.1a12.59,12.59,0,0,1,10.67-5c3,0,7,.54,9.9,3.48,3.25,3.25,3.48,7.35,3.48,10.13V91.87H420.9V74.16c0-2.24-.08-5.1-1.86-6.88a5.84,5.84,0,0,0-4.25-1.55,6,6,0,0,0-4.64,1.86c-1.86,1.86-2.17,4.33-2.17,6.57V91.87H396.86V57.38Z"/>
    <path d="M467.15,57.38h11.14V91.87H467.15V87.7A11.49,11.49,0,0,1,456.94,93c-5,0-9.12-1.24-12.91-5.26a18.25,18.25,0,0,1-5-12.91A19.64,19.64,0,0,1,444.37,61a16.63,16.63,0,0,1,12-4.72c2.94,0,7.66.7,10.83,5V57.38h0ZM453,68.28a8.62,8.62,0,0,0-2.55,6.26,8.9,8.9,0,0,0,2.32,6.19,9.15,9.15,0,0,0,6.57,2.71,8.25,8.25,0,0,0,5.8-2.4,9.15,9.15,0,0,0,.15-12.84,9.32,9.32,0,0,0-6.19-2.4,8.78,8.78,0,0,0-6.1,2.49h0Z"/>
    <path d="M498.4,35.54V91.87H487.26V35.54H498.4Z"/>
    <path d="M519.67,87.46L503.19,57.38H516l9.74,18.71,9.51-18.71h12.53l-27.76,52.16H507.52Z"/>
    <path d="M565.67,66.35V91.87H554.54V66.35h-3.87v-9h3.87V46.25h11.13V57.38h6.88v9h-6.88v0Z"/>
    <path d="M583.67,36.19a6.44,6.44,0,1,1-.12,0h0.12Zm5.57,21.19V91.87H578.13V57.38h11.11Z"/>
    <path d="M624.6,68.29a11.18,11.18,0,0,0-7.27-2.63A8.87,8.87,0,0,0,611,68.13a9.09,9.09,0,0,0-2.55,6.5,8.93,8.93,0,0,0,2.32,6.19,9.16,9.16,0,0,0,6.73,2.78,10.86,10.86,0,0,0,7.11-2.71V91A17.23,17.23,0,0,1,615.78,93a18.53,18.53,0,0,1-13.38-5.18,18.56,18.56,0,0,1,12.29-31.64q0.59,0,1.17,0a19.66,19.66,0,0,1,8.74,1.93V68.29h0Z"/>
    <path d="M653.14,66.2A12.66,12.66,0,0,0,647,64.27a4.73,4.73,0,0,0-3.17,1,2.38,2.38,0,0,0-.7,1.55,1.81,1.81,0,0,0,1.08,1.55,20.07,20.07,0,0,0,3.33,1.17l2.94,0.93a14.66,14.66,0,0,1,5.72,3A8.22,8.22,0,0,1,658.94,80a12.52,12.52,0,0,1-3.56,9C652,92.44,647.8,93,644.17,93A20.5,20.5,0,0,1,630,88l4.72-7.5a19.22,19.22,0,0,0,3.79,2.55,10.41,10.41,0,0,0,4.64,1.08,6.23,6.23,0,0,0,3.5-.72,2.94,2.94,0,0,0,1.16-2.24,2.28,2.28,0,0,0-1.24-2,14.72,14.72,0,0,0-3.4-1.24l-2.78-.85a13.78,13.78,0,0,1-5.57-3.17,8.51,8.51,0,0,1-2.47-6.26,10.68,10.68,0,0,1,3.33-8c3.09-2.86,7.27-3.48,10.44-3.48a21.77,21.77,0,0,1,11.44,2.94Z"/>
    <path d="M672,79a7,7,0,1,1-7,7A7,7,0,0,1,672,79Z"/>
    <path d="M693.43,36.19a6.44,6.44,0,1,1-.12,0h0.12ZM699,57.38v52.16H687.86V57.38H699Z"/>
    <path d="M729.55,66.2a12.66,12.66,0,0,0-6.11-1.93,4.73,4.73,0,0,0-3.17,1,2.38,2.38,0,0,0-.7,1.55,1.81,1.81,0,0,0,1.1,1.54A20.07,20.07,0,0,0,724,69.54l2.94,0.93a14.66,14.66,0,0,1,5.72,3A8.22,8.22,0,0,1,735.35,80a12.52,12.52,0,0,1-3.56,9c-3.4,3.4-7.58,3.94-11.21,3.94A20.5,20.5,0,0,1,706.43,88l4.72-7.5a19.22,19.22,0,0,0,3.79,2.55,10.41,10.41,0,0,0,4.64,1.08,6.23,6.23,0,0,0,3.48-.77,2.94,2.94,0,0,0,1.16-2.24,2.28,2.28,0,0,0-1.24-2,14.72,14.72,0,0,0-3.4-1.24l-2.78-.85a13.78,13.78,0,0,1-5.57-3.17,8.51,8.51,0,0,1-2.47-6.26,10.68,10.68,0,0,1,3.33-8c3.09-2.86,7.27-3.48,10.44-3.48A21.77,21.77,0,0,1,734,59.09Z"/>
  </g>
</svg>
