<svg id="2dfbc3b4-85aa-433d-8aab-38210a1900af" data-name="Layer 1" xmlns="http://www.w3.org/2000/svg" viewBox="0 0 615.35 74.08">
  <title>coveo.analytics.js</title>
  <g>
    <path d="M169.93,70.75a11.18,11.18,0,0,0-7.27-2.63,8.87,8.87,0,0,0-6.34,2.47,9.09,9.09,0,0,0-2.55,6.5,8.93,8.93,0,0,0,2.32,6.19,9.16,9.16,0,0,0,6.73,2.78,10.86,10.86,0,0,0,7.11-2.71V93.41a17.23,17.23,0,0,1-8.82,2.09,18.53,18.53,0,0,1-13.38-5.18,18,18,0,0,1-5.41-13.15,18.1,18.1,0,0,1,18.87-18.48,19.66,19.66,0,0,1,8.74,1.93V70.75Z" transform="translate(-142.32 -37.96)"/>
    <path d="M211,89.92c-3.09,3.09-8.35,5.57-15.08,5.57s-12-2.47-15.08-5.57a18.49,18.49,0,0,1,0-25.67c3.09-3.09,8.35-5.57,15.08-5.57s12,2.47,15.08,5.57A18.49,18.49,0,0,1,211,89.92ZM189.65,70.59a9.54,9.54,0,0,0,0,13A8.58,8.58,0,0,0,196,86.06a8.45,8.45,0,0,0,6.19-2.47,9.54,9.54,0,0,0,0-13A9.16,9.16,0,0,0,189.65,70.59Z" transform="translate(-142.32 -37.96)"/>
    <path d="M230.33,59.84l8.74,18.48,8.74-18.48H260L242.55,94.33h-7L218.11,59.84h12.22Z" transform="translate(-142.32 -37.96)"/>
    <path d="M298.69,79H272.94A9.43,9.43,0,0,0,275,84.9a7.47,7.47,0,0,0,5.72,2.17,9.14,9.14,0,0,0,4.49-1,6.75,6.75,0,0,0,2.4-2.86l10.52,1.08a15.42,15.42,0,0,1-6.65,8.66c-3.33,2-7,2.55-10.9,2.55-5.18,0-9.74-.93-13.77-4.95a18.53,18.53,0,0,1-5.18-13.3,19.64,19.64,0,0,1,5.26-13.61c4.18-4.18,9.36-4.95,13.22-4.95s9.43,0.7,13.69,5.18c4.1,4.33,4.87,9.74,4.87,14V79Zm-10.28-6.65a8.78,8.78,0,0,0-2.24-4,8.17,8.17,0,0,0-10.9.31,7.75,7.75,0,0,0-1.93,3.71h15.08Z" transform="translate(-142.32 -37.96)"/>
    <path d="M339.3,89.92c-3.09,3.09-8.35,5.57-15.08,5.57s-12-2.47-15.08-5.57a18.49,18.49,0,0,1,0-25.67c3.09-3.09,8.35-5.57,15.08-5.57s12,2.47,15.08,5.57A18.49,18.49,0,0,1,339.3,89.92ZM318,70.59a9.54,9.54,0,0,0,0,13,8.58,8.58,0,0,0,6.34,2.47,8.45,8.45,0,0,0,6.19-2.47,9.54,9.54,0,0,0,0-13A9.16,9.16,0,0,0,318,70.59Z" transform="translate(-142.32 -37.96)"/>
    <path d="M357.86,81.5a7,7,0,1,1-7,7A7,7,0,0,1,357.86,81.5Z" transform="translate(-142.32 -37.96)"/>
    <path d="M399.39,59.84h11.14V94.33H399.39V90.16a11.49,11.49,0,0,1-10.21,5.34c-4.95,0-9.12-1.24-12.92-5.26a18.25,18.25,0,0,1-5-12.91,19.64,19.64,0,0,1,5.34-13.92,16.63,16.63,0,0,1,12-4.72c2.94,0,7.66.7,10.83,5V59.84Zm-14.15,10.9A8.62,8.62,0,0,0,382.68,77,8.89,8.89,0,0,0,385,83.2a9.14,9.14,0,0,0,6.57,2.71,8.25,8.25,0,0,0,5.8-2.4,9.15,9.15,0,0,0,.15-12.84,9.32,9.32,0,0,0-6.19-2.4A8.78,8.78,0,0,0,385.23,70.75Z" transform="translate(-142.32 -37.96)"/>
    <path d="M419.19,59.84h11.14v4.1a12.59,12.59,0,0,1,10.67-5c3,0,7,.54,9.9,3.48,3.25,3.25,3.48,7.35,3.48,10.13V94.33H443.23V76.62c0-2.24-.08-5.1-1.86-6.88a5.84,5.84,0,0,0-4.25-1.55,6.05,6.05,0,0,0-4.64,1.86c-1.86,1.86-2.17,4.33-2.17,6.57V94.33H419.19V59.84Z" transform="translate(-142.32 -37.96)"/>
    <path d="M489.48,59.84h11.14V94.33H489.48V90.16a11.49,11.49,0,0,1-10.21,5.34c-4.95,0-9.12-1.24-12.91-5.26a18.25,18.25,0,0,1-5-12.91,19.64,19.64,0,0,1,5.34-13.92,16.63,16.63,0,0,1,12-4.72c2.94,0,7.66.7,10.83,5V59.84Zm-14.15,10.9A8.62,8.62,0,0,0,472.78,77a8.9,8.9,0,0,0,2.32,6.19,9.15,9.15,0,0,0,6.57,2.71,8.25,8.25,0,0,0,5.8-2.4,9.15,9.15,0,0,0,.15-12.84,9.32,9.32,0,0,0-6.19-2.4A8.78,8.78,0,0,0,475.33,70.75Z" transform="translate(-142.32 -37.96)"/>
    <path d="M520.73,38V94.33H509.59V38h11.14Z" transform="translate(-142.32 -37.96)"/>
    <path d="M542,89.92L525.52,59.84h12.84l9.74,18.71,9.51-18.71h12.53L542.38,112H529.85Z" transform="translate(-142.32 -37.96)"/>
    <path d="M588,68.81V94.33H576.87V68.81H573v-9h3.87V48.71H588V59.84h6.88v9H588Z" transform="translate(-142.32 -37.96)"/>
    <path d="M606,38.65a6.5,6.5,0,1,1-6.5,6.5A6.44,6.44,0,0,1,606,38.65Zm5.57,21.19V94.33H600.46V59.84h11.14Z" transform="translate(-142.32 -37.96)"/>
    <path d="M646.93,70.75a11.18,11.18,0,0,0-7.27-2.63,8.87,8.87,0,0,0-6.34,2.47,9.09,9.09,0,0,0-2.55,6.5,8.93,8.93,0,0,0,2.32,6.19,9.16,9.16,0,0,0,6.73,2.78,10.86,10.86,0,0,0,7.11-2.71V93.41a17.23,17.23,0,0,1-8.82,2.09,18.53,18.53,0,0,1-13.38-5.18,18,18,0,0,1-5.41-13.15,18.1,18.1,0,0,1,18.87-18.48,19.66,19.66,0,0,1,8.74,1.93V70.75Z" transform="translate(-142.32 -37.96)"/>
    <path d="M675.47,68.66a12.66,12.66,0,0,0-6.11-1.93,4.73,4.73,0,0,0-3.17,1,2.38,2.38,0,0,0-.7,1.55,1.81,1.81,0,0,0,1.08,1.55A20.07,20.07,0,0,0,669.9,72l2.94,0.93a14.66,14.66,0,0,1,5.72,3,8.22,8.22,0,0,1,2.71,6.57,12.52,12.52,0,0,1-3.56,9c-3.4,3.4-7.58,3.94-11.21,3.94a20.5,20.5,0,0,1-14.15-4.95l4.72-7.5a19.22,19.22,0,0,0,3.79,2.55,10.41,10.41,0,0,0,4.64,1.08A6.23,6.23,0,0,0,669,85.9a2.94,2.94,0,0,0,1.16-2.24,2.28,2.28,0,0,0-1.24-2,14.72,14.72,0,0,0-3.4-1.24l-2.78-.85a13.78,13.78,0,0,1-5.57-3.17,8.51,8.51,0,0,1-2.47-6.26,10.68,10.68,0,0,1,3.33-8c3.09-2.86,7.27-3.48,10.44-3.48a21.77,21.77,0,0,1,11.44,2.94Z" transform="translate(-142.32 -37.96)"/>
    <path d="M694.34,81.5a7,7,0,1,1-7,7A7,7,0,0,1,694.34,81.5Z" transform="translate(-142.32 -37.96)"/>
    <path d="M715.76,38.65a6.5,6.5,0,1,1-6.5,6.5A6.44,6.44,0,0,1,715.76,38.65Zm5.57,21.19V112H710.19V59.84h11.14Z" transform="translate(-142.32 -37.96)"/>
    <path d="M751.88,68.66a12.66,12.66,0,0,0-6.11-1.93,4.73,4.73,0,0,0-3.17,1,2.38,2.38,0,0,0-.7,1.55A1.81,1.81,0,0,0,743,70.82,20.07,20.07,0,0,0,746.31,72l2.94,0.93a14.66,14.66,0,0,1,5.72,3,8.22,8.22,0,0,1,2.71,6.57,12.52,12.52,0,0,1-3.56,9c-3.4,3.4-7.58,3.94-11.21,3.94a20.5,20.5,0,0,1-14.15-4.95l4.72-7.5a19.22,19.22,0,0,0,3.79,2.55,10.41,10.41,0,0,0,4.64,1.08,6.23,6.23,0,0,0,3.48-.77,2.94,2.94,0,0,0,1.16-2.24,2.28,2.28,0,0,0-1.24-2,14.72,14.72,0,0,0-3.4-1.24l-2.78-.85a13.78,13.78,0,0,1-5.57-3.17,8.51,8.51,0,0,1-2.47-6.26,10.68,10.68,0,0,1,3.33-8c3.09-2.86,7.27-3.48,10.44-3.48a21.77,21.77,0,0,1,11.44,2.94Z" transform="translate(-142.32 -37.96)"/>
  </g>
</svg>
