<?xml version="1.0" encoding="utf-8"?>
<!-- Svg Vector Icons : http://www.onlinewebfonts.com/icon -->
<!DOCTYPE svg PUBLIC "-//W3C//DTD SVG 1.1//EN" "http://www.w3.org/Graphics/SVG/1.1/DTD/svg11.dtd">
<svg version="1.1" xmlns="http://www.w3.org/2000/svg" xmlns:xlink="http://www.w3.org/1999/xlink" x="0px" y="0px" viewBox="0 0 1000 1000" enable-background="new 0 0 1000 1000" xml:space="preserve">
<metadata> Svg Vector Icons : http://www.onlinewebfonts.com/icon </metadata>
<g><path d="M964.5,841.4L695.7,572.6c87.1-142.4,69-331-54.3-454.3C497-26.1,262.8-26.1,118.3,118.3c-144.5,144.4-144.5,378.6,0,523.1c123.3,123.2,311.9,141.3,454.3,54.3l268.8,268.8c34.1,34.1,89.1,34,123.1,0C998.5,930.6,998.5,875.4,964.5,841.4z M579.9,579.9c-110.5,110.5-289.6,110.5-400,0c-110.5-110.5-110.5-289.5,0-400c110.5-110.5,289.6-110.5,400,0C690.4,290.3,690.4,469.4,579.9,579.9z"/></g>
</svg>