<svg xmlns="http://www.w3.org/2000/svg" viewBox="75 65 140 145" role="img" aria-label="Coveo">
  <path fill="#00ADFF" d="M193.5,88.7c-11.8-11.8-26.8-18.4-42.2-19.8c-1.9-0.2-2.9,2.1-1.6,3.4L174.5,97c0.2,0.2-0.1,0.4-0.2,0.3
    c-7.1-5.1-15.2-8.1-23.5-8.8c-1.3-0.1-2,1.5-1.1,2.4l16.8,16.8c0.2,0.2,0,0.4-0.2,0.3c-4.6-3.2-9.9-5-15.3-5.5
    c-0.9-0.1-1.4,1-0.8,1.6l28.6,28.6c0.6,0.6,1.7,0.1,1.6-0.8c-0.5-5.4-2.3-10.6-5.5-15.3c-0.1-0.2,0.1-0.4,0.3-0.2l16.2,16.2
    c0.9,0.9,2.5,0.2,2.4-1.1c-0.8-8.3-3.7-16.5-8.8-23.5c-0.1-0.2,0.1-0.4,0.3-0.2l24.7,24.7c1.3,1.4,3.6,0.3,3.4-1.6
    C211.9,115.5,205.3,100.5,193.5,88.7"/>
  <path fill="#FF413A" d="M96.7,88.7c11.8-11.8,26.8-18.4,42.2-19.8c1.9-0.2,2.9,2.1,1.6,3.4L115.8,97c-0.2,0.2,0.1,0.4,0.2,0.3
    c7.1-5.1,15.2-8.1,23.5-8.8c1.3-0.1,2,1.5,1.1,2.4l-16.8,16.8c-0.2,0.2,0,0.4,0.2,0.3c4.6-3.2,9.9-5,15.3-5.5
    c0.9-0.1,1.4,1,0.8,1.6l-28.6,28.6c-0.6,0.6-1.7,0.1-1.6-0.8c0.5-5.4,2.3-10.6,5.5-15.3c0.1-0.2-0.1-0.4-0.3-0.2l-16.2,16.2
    c-0.9,0.9-2.5,0.2-2.4-1.1c0.8-8.3,3.7-16.5,8.8-23.5c0.1-0.2-0.1-0.4-0.3-0.2l-24.7,24.7c-1.3,1.4-3.6,0.3-3.4-1.6
    C78.3,115.5,84.9,100.5,96.7,88.7"/>
  <path fill="#00EFCD" d="M96.7,186.3c11.8,11.8,26.8,18.4,42.2,19.8c1.9,0.2,2.9-2.1,1.6-3.4L115.8,178c-0.2-0.2,0.1-0.4,0.2-0.3
    c7.1,5.1,15.2,8.1,23.5,8.8c1.3,0.1,2-1.5,1.1-2.4l-16.8-16.8c-0.2-0.2,0-0.4,0.2-0.3c4.6,3.2,9.9,5,15.3,5.5
    c0.9,0.1,1.4-1,0.8-1.6l-28.6-28.6c-0.6-0.6-1.7-0.1-1.6,0.8c0.5,5.4,2.3,10.6,5.5,15.3c0.1,0.2-0.1,0.4-0.3,0.2l-16.2-16.2
    c-0.9-0.9-2.5-0.2-2.4,1.1c0.8,8.3,3.7,16.5,8.8,23.5c0.1,0.2-0.1,0.4-0.3,0.2l-24.7-24.7c-1.3-1.4-3.6-0.3-3.4,1.6
    C78.3,159.5,84.9,174.5,96.7,186.3"/>
  <path fill="#FFE300" d="M193.5,186.3c-11.8,11.8-26.8,18.4-42.2,19.8c-1.9,0.2-2.9-2.1-1.6-3.4l24.7-24.7c0.2-0.2-0.1-0.4-0.2-0.3
    c-7.1,5.1-15.2,8.1-23.5,8.8c-1.3,0.1-2-1.5-1.1-2.4l16.8-16.8c0.2-0.2,0-0.4-0.2-0.3c-4.6,3.2-9.9,5-15.3,5.5
    c-0.9,0.1-1.4-1-0.8-1.6l28.6-28.6c0.6-0.6,1.7-0.1,1.6,0.8c-0.5,5.4-2.3,10.6-5.5,15.3c-0.1,0.2,0.1,0.4,0.3,0.2l16.2-16.2
    c0.9-0.9,2.5-0.2,2.4,1.1c-0.8,8.3-3.7,16.5-8.8,23.5c-0.1,0.2,0.1,0.4,0.3,0.2l24.7-24.7c1.3-1.4,3.6-0.3,3.4,1.6
    C211.9,159.5,205.3,174.5,193.5,186.3"/>
</svg>
