<svg width="9" height="9" viewBox="0 0 9 10" fill="none" xmlns="http://www.w3.org/2000/svg">
<path fill-rule="evenodd" clip-rule="evenodd" d="M8.6 0.111115H2.72308C2.47692 0.111115 2.23077 0.269234 2.23077 0.522226V1.47094C2.23077 1.72394 2.44615 2.00855 2.72308 2.00855H5.15385C5.43077 2.00855 5.58462 2.32479 5.36923 2.51453L0.138462 7.8906C-0.0461539 8.08035 -0.0461539 8.36496 0.138462 8.5547L0.784615 9.21881C0.969231 9.40855 1.24615 9.40855 1.43077 9.21881L6.66154 3.84274C6.84615 3.653 7.15385 3.77949 7.15385 4.06411V6.5624C7.15385 6.81539 7.4 7.1 7.64615 7.1H8.53846C8.78462 7.1 9 6.81539 9 6.5624V0.55385C9 0.269234 8.84615 0.111115 8.6 0.111115V0.111115Z" fill="white"/>
</svg>
