<svg width="26" height="26" viewBox="0 0 26 26" xmlns="http://www.w3.org/2000/svg">
<path fill-rule="evenodd" clip-rule="evenodd" d="M8.8125 18.3125C9.1125 18.6125 9.5625 18.5625 9.8625 18.3125L14.8625 13.3125C15.2125 12.9625 15.8125 12.9125 16.2625 13.3125C16.7125 13.7125 16.6625 14.4125 16.2625 14.8125L10.1125 20.8625C8.7625 22.2125 6.5125 22.2125 5.1625 20.8625L5.1125 20.8125C3.7625 19.4625 3.7625 17.2125 5.1125 15.8625L15.9625 5.0125C17.3125 3.6625 19.5625 3.6625 20.9125 5.0125L20.9625 5.0625C22.3125 6.4125 22.3125 8.6625 20.9625 10.0125L20.9125 10.0625C20.6625 10.3125 20.6125 10.6625 20.8125 10.9625C21.1125 11.5125 21.3625 12.1125 21.5125 12.7125C21.6125 13.1125 22.0625 13.2125 22.3625 12.9625C22.7625 12.5625 23.1125 12.1625 23.1125 12.1625C25.6625 9.6125 25.6625 5.4625 23.1125 2.9125H23.0125C20.4625 0.3625 16.3125 0.3625 13.7625 2.9125L2.9125 13.7125C0.3625 16.2625 0.3625 20.4125 2.9125 22.9625L3.0125 23.0625C5.5625 25.6125 9.6625 25.6125 12.2125 23.0625L18.4125 16.9125C20.0125 15.3125 19.9625 12.7125 18.3125 11.1125C16.7125 9.5625 14.1125 9.6625 12.5625 11.2625L7.6625 16.1625C7.3625 16.4625 7.3625 16.9625 7.6625 17.2625L8.8125 18.3125Z"/>
</svg>
