<svg xmlns="http://www.w3.org/2000/svg" xmlns:xlink="http://www.w3.org/1999/xlink" width="26px" height="26px" viewBox="0 0 26 26" version="1.1">
<path fill-rule="evenodd" clip-rule="evenodd" d="M 8.300781 16.898438 C 8.566406 17.148438 8.980469 17.148438 9.25 16.898438 L 13.851562 12.300781 C 14.214844 11.957031 14.785156 11.957031 15.148438 12.300781 C 15.53125 12.6875 15.53125 13.3125 15.148438 13.699219 L 9.449219 19.25 C 8.191406 20.457031 6.207031 20.457031 4.949219 19.25 L 4.898438 19.25 C 4.289062 18.640625 3.945312 17.8125 3.945312 16.949219 C 3.945312 16.085938 4.289062 15.257812 4.898438 14.648438 L 14.898438 4.648438 C 16.15625 3.445312 18.140625 3.445312 19.398438 4.648438 L 19.5 4.75 C 20.707031 6.007812 20.707031 7.992188 19.5 9.25 L 19.449219 9.351562 C 19.234375 9.5625 19.195312 9.890625 19.351562 10.148438 C 19.632812 10.65625 19.847656 11.191406 20 11.75 C 20.050781 11.894531 20.167969 12.011719 20.3125 12.058594 C 20.460938 12.109375 20.621094 12.085938 20.75 12 C 21.148438 11.648438 21.449219 11.25 21.449219 11.25 C 22.578125 10.125 23.214844 8.59375 23.214844 7 C 23.214844 5.40625 22.578125 3.875 21.449219 2.75 L 21.351562 2.75 C 20.222656 1.621094 18.695312 0.984375 17.101562 0.984375 C 15.503906 0.984375 13.976562 1.621094 12.851562 2.75 L 2.851562 12.699219 C 1.71875 13.824219 1.085938 15.355469 1.085938 16.949219 C 1.085938 18.542969 1.71875 20.074219 2.851562 21.199219 L 2.949219 21.300781 C 5.289062 23.621094 9.0625 23.621094 11.398438 21.300781 L 17.101562 15.648438 C 18.078125 14.695312 18.457031 13.285156 18.089844 11.964844 C 17.726562 10.648438 16.671875 9.636719 15.34375 9.320312 C 14.015625 9.003906 12.617188 9.4375 11.699219 10.449219 L 7.199219 14.949219 C 7.066406 15.082031 6.988281 15.261719 6.988281 15.449219 C 6.988281 15.636719 7.066406 15.816406 7.199219 15.949219 Z M 22.648438 20.800781 L 24.75 18.699219 C 24.839844 18.613281 24.890625 18.496094 24.890625 18.375 C 24.890625 18.253906 24.839844 18.136719 24.75 18.050781 L 23.5 16.75 C 23.414062 16.660156 23.296875 16.609375 23.175781 16.609375 C 23.050781 16.609375 22.933594 16.660156 22.851562 16.75 L 20.800781 19 L 18.800781 17 C 18.714844 16.910156 18.597656 16.859375 18.476562 16.859375 C 18.351562 16.859375 18.234375 16.910156 18.148438 17 L 16.898438 18.25 C 16.738281 18.4375 16.738281 18.710938 16.898438 18.898438 L 18.898438 20.898438 L 16.898438 22.800781 C 16.8125 22.886719 16.761719 23.003906 16.761719 23.125 C 16.761719 23.246094 16.8125 23.363281 16.898438 23.449219 L 18.25 24.75 C 18.335938 24.839844 18.453125 24.890625 18.574219 24.890625 C 18.699219 24.890625 18.816406 24.839844 18.898438 24.75 L 20.800781 22.800781 L 22.851562 24.898438 C 22.933594 24.988281 23.050781 25.039062 23.175781 25.039062 C 23.296875 25.039062 23.414062 24.988281 23.5 24.898438 L 24.800781 23.601562 C 24.886719 23.515625 24.9375 23.398438 24.9375 23.273438 C 24.9375 23.152344 24.886719 23.035156 24.800781 22.949219 Z M 22.648438 20.800781 "/>
</svg>
