<svg width="26" height="26" viewBox="0 0 26 26" xmlns="http://www.w3.org/2000/svg">
<path fill-rule="evenodd" clip-rule="evenodd" d="M12.4735 15.55C12.7735 15.85 13.2235 15.85 13.5235 15.55L24.8235 5.05C25.0235 4.65 24.9735 4 24.1735 4L1.82347 4.05C1.22347 4.05 0.723467 4.6 1.17347 5.1L12.4735 15.55ZM25.0235 9.15C25.0235 8.65 24.4235 8.35 24.0235 8.7L15.1735 16.85C14.5735 17.4 13.8235 17.7 13.0235 17.7C12.2235 17.7 11.4735 17.4 10.8735 16.9L2.07347 8.7C1.67347 8.35 1.07347 8.6 1.07347 9.15C1.02347 9 1.02347 20.5 1.02347 20.5C1.02347 21.6 1.92347 22.5 3.02347 22.5H23.0235C24.1235 22.5 25.0235 21.6 25.0235 20.5V9.15Z"/>
</svg>
