<svg width="14" height="13" viewBox="0 0 14 13" fill="none" xmlns="http://www.w3.org/2000/svg">
<path d="M8.87501 6.12835C8.86388 6.13837 8.8532 6.14889 8.84301 6.15987C8.62114 6.399 8.5 6.71441 8.5 7.03922L8.5 12.2222C8.5 12.3929 8.37108 12.4999 8.25 12.4999L5.74999 12.4999C5.62891 12.4999 5.49999 12.3929 5.5 12.2222V7.03921C5.5 6.7144 5.37885 6.39899 5.15698 6.15986C5.14679 6.14888 5.13612 6.13836 5.12499 6.12834L0.56512 2.02315C0.524585 1.9736 0.499999 1.9077 0.5 1.83654L0.500008 0.777776C0.500009 0.607068 0.628921 0.5 0.750007 0.5L13.25 0.500025C13.3711 0.500025 13.5 0.607095 13.5 0.777806L13.5 1.83656C13.5 1.90773 13.4754 1.97362 13.4349 2.02317L8.87501 6.12835Z" stroke="currentColor" stroke-linejoin="round"/>
</svg>
