<svg width="12" height="12" viewBox="0 0 12 12" fill="none" xmlns="http://www.w3.org/2000/svg">
<path d="M2.1752 0.937598C2.1752 0.757598 2.0177 0.600098 1.8377 0.600098H1.1627C0.982695 0.600098 0.825195 0.757598 0.825195 0.937598V11.0626C0.825195 11.2426 0.982695 11.4001 1.1627 11.4001H1.8377C2.0177 11.4001 2.1752 11.2426 2.1752 11.0626V0.937598Z" fill="white"/>
<path d="M10.8377 1.88255C7.2377 3.77255 7.6427 -0.097451 3.3002 1.41005C3.1652 1.45505 3.0752 1.59005 3.0752 1.72505V6.96755C3.0752 7.12505 3.2327 7.23755 3.3677 7.17005C7.6877 5.73005 7.2377 9.69005 10.9952 7.57505C11.1077 7.50755 11.1752 7.39505 11.1752 7.28255V2.06255C11.1752 1.90505 10.9952 1.79255 10.8377 1.88255Z" fill="white"/>
</svg>
