<svg width="27" height="26" viewBox="0 0 27 26" xmlns="http://www.w3.org/2000/svg">
<path fill-rule="evenodd" clip-rule="evenodd" d="M25.9125 13.05C23.5625 8.3 18.6625 5 13.0125 5C7.3625 5 2.4625 8.3 0.1125 13.05C-0.0375 13.35 -0.0375 13.7 0.1125 13.95C2.4625 18.7 7.3625 22 13.0125 22C18.6625 22 23.5625 18.7 25.9125 13.95C26.0625 13.65 26.0625 13.35 25.9125 13.05ZM13.0125 19C9.9625 19 7.5125 16.55 7.5125 13.5C7.5125 10.45 9.9625 8 13.0125 8C16.0625 8 18.5125 10.45 18.5125 13.5C18.5125 16.55 16.0625 19 13.0125 19ZM13.0125 10C11.0625 10 9.5125 11.55 9.5125 13.5C9.5125 15.45 11.0625 17 13.0125 17C14.9625 17 16.5125 15.45 16.5125 13.5C16.5125 11.55 14.9625 10 13.0125 10Z"/>
</svg>
