<svg viewBox="0 0 312 312" fill="none" xmlns="http://www.w3.org/2000/svg">
<g clip-path="url(#clip0)">
<g filter="url(#filter0_b)">
<rect x="156.118" width="220.784" height="220.784" rx="14.7189" transform="rotate(45 156.118 0)" fill="#F6F7F9"/>
</g>
<rect x="60.1177" y="126" width="34" height="9" rx="4.5" fill="#E5E8E8"/>
<rect x="102.118" y="126" width="67" height="9" rx="4.5" fill="#E5E8E8"/>
<rect x="177.118" y="126" width="67" height="9" rx="4.5" fill="#E5E8E8"/>
<rect x="60.1177" y="151" width="162" height="9" rx="4.5" fill="#E5E8E8"/>
<rect x="60.1177" y="176" width="177" height="9" rx="4.5" fill="#E5E8E8"/>
<g filter="url(#filter1_f)">
<path d="M183.857 226.206C179.378 223.774 178.389 217.774 181.85 214.033C184.309 211.374 188.272 210.753 191.427 212.532L247.56 244.198C251.767 246.571 252.551 252.302 249.136 255.717C246.849 258.004 243.331 258.513 240.49 256.97L183.857 226.206Z" fill="#E5E8E8"/>
</g>
<rect x="195.143" y="205.948" width="15.064" height="78.2384" rx="7.53201" transform="rotate(-45 195.143 205.948)" fill="#333357"/>
<g filter="url(#filter2_d)">
<path fill-rule="evenodd" clip-rule="evenodd" d="M161.415 226.595C200.792 226.595 232.713 194.674 232.713 155.298C232.713 115.921 200.792 84 161.415 84C122.039 84 90.1177 115.921 90.1177 155.298C90.1177 194.674 122.039 226.595 161.415 226.595ZM161.441 212.539C193.04 212.539 218.657 186.922 218.657 155.323C218.657 123.724 193.04 98.108 161.441 98.108C129.842 98.108 104.226 123.724 104.226 155.323C104.226 186.922 129.842 212.539 161.441 212.539Z" fill="url(#paint0_linear)"/>
</g>
<g filter="url(#filter3_d)">
<circle cx="161.415" cy="155.297" r="59.6307" fill="url(#paint1_linear)"/>
</g>
<g filter="url(#filter4_i)">
<circle cx="161.441" cy="155.323" r="57.2153" fill="url(#paint2_linear)"/>
</g>
<mask id="mask0" style="mask-type:alpha" maskUnits="userSpaceOnUse" x="104" y="98" width="115" height="115">
<circle cx="161.415" cy="155.298" r="57.038" fill="white"/>
</mask>
<g mask="url(#mask0)">
<rect opacity="0.5" x="104.117" y="126" width="37" height="18" rx="8" fill="url(#paint3_linear)"/>
<rect opacity="0.5" x="184.117" y="167" width="37" height="18" rx="8" fill="url(#paint4_linear)"/>
<g opacity="0.6" filter="url(#filter5_f)">
<path d="M179.302 90.5598L187.576 96.3234C187.576 96.3234 140.258 159.434 177.534 239.025C164.157 234.174 126.719 230.494 120.018 222.474C88.6869 131.944 179.302 90.5598 179.302 90.5598Z" fill="url(#paint5_linear)"/>
</g>
<g opacity="0.5" filter="url(#filter6_f)">
<circle cx="197.896" cy="133.778" r="7.77791" fill="white"/>
</g>
<g opacity="0.7" filter="url(#filter7_f)">
<circle cx="207.358" cy="150.241" r="3.2408" fill="white"/>
</g>
<g filter="url(#filter8_di)">
<path fill-rule="evenodd" clip-rule="evenodd" d="M179.633 147.409C180.414 146.628 180.414 145.362 179.633 144.581L173.983 138.931C173.202 138.15 171.936 138.15 171.155 138.931L160.782 149.304L150.409 138.931C149.628 138.15 148.362 138.15 147.581 138.931L141.931 144.581C141.15 145.362 141.15 146.628 141.931 147.409L152.304 157.782L141.931 168.155C141.15 168.936 141.15 170.202 141.931 170.983L147.581 176.633C148.362 177.414 149.628 177.414 150.409 176.633L160.782 166.26L171.155 176.633C171.936 177.414 173.202 177.414 173.983 176.633L179.633 170.983C180.414 170.202 180.414 168.936 179.633 168.155L169.261 157.782L179.633 147.409Z" fill="url(#paint6_linear)"/>
</g>
</g>
</g>
<defs>
<filter id="filter0_b" x="2.41695" y="2.41695" width="307.401" height="307.401" filterUnits="userSpaceOnUse" color-interpolation-filters="sRGB">
<feFlood flood-opacity="0" result="BackgroundImageFix"/>
<feComposite in2="SourceAlpha" operator="in" result="effect1_backgroundBlur"/>
<feBlend mode="normal" in="SourceGraphic" in2="effect1_backgroundBlur" result="shape"/>
</filter>
<filter id="filter1_f" x="174.586" y="206.339" width="81.8738" height="56.7021" filterUnits="userSpaceOnUse" color-interpolation-filters="sRGB">
<feFlood flood-opacity="0" result="BackgroundImageFix"/>
<feBlend mode="normal" in="SourceGraphic" in2="BackgroundImageFix" result="shape"/>
<feGaussianBlur stdDeviation="2.59264" result="effect1_foregroundBlur"/>
</filter>
<filter id="filter2_d" x="59.006" y="84" width="204.818" height="206.115" filterUnits="userSpaceOnUse" color-interpolation-filters="sRGB">
<feFlood flood-opacity="0" result="BackgroundImageFix"/>
<feColorMatrix in="SourceAlpha" type="matrix" values="0 0 0 0 0 0 0 0 0 0 0 0 0 0 0 0 0 0 127 0" result="hardAlpha"/>
<feOffset dy="32.408"/>
<feGaussianBlur stdDeviation="15.5558"/>
<feColorMatrix type="matrix" values="0 0 0 0 0.320677 0 0 0 0 0.320677 0 0 0 0 0.5875 0 0 0 0.38 0"/>
<feBlend mode="normal" in2="BackgroundImageFix" result="effect1_dropShadow"/>
<feBlend mode="normal" in="SourceGraphic" in2="effect1_dropShadow" result="shape"/>
</filter>
<filter id="filter3_d" x="91.4139" y="85.2962" width="140.002" height="140.002" filterUnits="userSpaceOnUse" color-interpolation-filters="sRGB">
<feFlood flood-opacity="0" result="BackgroundImageFix"/>
<feColorMatrix in="SourceAlpha" type="matrix" values="0 0 0 0 0 0 0 0 0 0 0 0 0 0 0 0 0 0 127 0" result="hardAlpha"/>
<feOffset/>
<feGaussianBlur stdDeviation="5.18528"/>
<feColorMatrix type="matrix" values="0 0 0 0 0.320677 0 0 0 0 0.320677 0 0 0 0 0.5875 0 0 0 1 0"/>
<feBlend mode="normal" in2="BackgroundImageFix" result="effect1_dropShadow"/>
<feBlend mode="normal" in="SourceGraphic" in2="effect1_dropShadow" result="shape"/>
</filter>
<filter id="filter4_i" x="104.226" y="98.1079" width="114.431" height="124.801" filterUnits="userSpaceOnUse" color-interpolation-filters="sRGB">
<feFlood flood-opacity="0" result="BackgroundImageFix"/>
<feBlend mode="normal" in="SourceGraphic" in2="BackgroundImageFix" result="shape"/>
<feColorMatrix in="SourceAlpha" type="matrix" values="0 0 0 0 0 0 0 0 0 0 0 0 0 0 0 0 0 0 127 0" result="hardAlpha"/>
<feOffset dy="10.3706"/>
<feGaussianBlur stdDeviation="5.83344"/>
<feComposite in2="hardAlpha" operator="arithmetic" k2="-1" k3="1"/>
<feColorMatrix type="matrix" values="0 0 0 0 0.529306 0 0 0 0 0.529306 0 0 0 0 0.858333 0 0 0 1 0"/>
<feBlend mode="normal" in2="shape" result="effect1_innerShadow"/>
</filter>
<filter id="filter5_f" x="110.431" y="87.5598" width="80.1448" height="154.465" filterUnits="userSpaceOnUse" color-interpolation-filters="sRGB">
<feFlood flood-opacity="0" result="BackgroundImageFix"/>
<feBlend mode="normal" in="SourceGraphic" in2="BackgroundImageFix" result="shape"/>
<feGaussianBlur stdDeviation="1.5" result="effect1_foregroundBlur"/>
</filter>
<filter id="filter6_f" x="187.525" y="123.407" width="20.7412" height="20.7412" filterUnits="userSpaceOnUse" color-interpolation-filters="sRGB">
<feFlood flood-opacity="0" result="BackgroundImageFix"/>
<feBlend mode="normal" in="SourceGraphic" in2="BackgroundImageFix" result="shape"/>
<feGaussianBlur stdDeviation="1.29632" result="effect1_foregroundBlur"/>
</filter>
<filter id="filter7_f" x="201.525" y="144.407" width="11.667" height="11.667" filterUnits="userSpaceOnUse" color-interpolation-filters="sRGB">
<feFlood flood-opacity="0" result="BackgroundImageFix"/>
<feBlend mode="normal" in="SourceGraphic" in2="BackgroundImageFix" result="shape"/>
<feGaussianBlur stdDeviation="1.29632" result="effect1_foregroundBlur"/>
</filter>
<filter id="filter8_di" x="128.345" y="129.345" width="64.874" height="64.874" filterUnits="userSpaceOnUse" color-interpolation-filters="sRGB">
<feFlood flood-opacity="0" result="BackgroundImageFix"/>
<feColorMatrix in="SourceAlpha" type="matrix" values="0 0 0 0 0 0 0 0 0 0 0 0 0 0 0 0 0 0 127 0" result="hardAlpha"/>
<feOffset dy="4"/>
<feGaussianBlur stdDeviation="6.5"/>
<feComposite in2="hardAlpha" operator="out"/>
<feColorMatrix type="matrix" values="0 0 0 0 0.933333 0 0 0 0 0.509331 0 0 0 0 0.474444 0 0 0 0.47 0"/>
<feBlend mode="normal" in2="BackgroundImageFix" result="effect1_dropShadow"/>
<feBlend mode="normal" in="SourceGraphic" in2="effect1_dropShadow" result="shape"/>
<feColorMatrix in="SourceAlpha" type="matrix" values="0 0 0 0 0 0 0 0 0 0 0 0 0 0 0 0 0 0 127 0" result="hardAlpha"/>
<feOffset dy="-1"/>
<feGaussianBlur stdDeviation="0.5"/>
<feComposite in2="hardAlpha" operator="arithmetic" k2="-1" k3="1"/>
<feColorMatrix type="matrix" values="0 0 0 0 0.631373 0 0 0 0 0.0784315 0 0 0 0 0.0352941 0 0 0 0.47 0"/>
<feBlend mode="normal" in2="shape" result="effect2_innerShadow"/>
</filter>
<linearGradient id="paint0_linear" x1="106.615" y1="63.4032" x2="289.344" y2="240.521" gradientUnits="userSpaceOnUse">
<stop offset="0.505208" stop-color="#3F3F71"/>
<stop offset="1" stop-color="#5D237D"/>
</linearGradient>
<linearGradient id="paint1_linear" x1="200.305" y1="208.446" x2="121.878" y2="98.2589" gradientUnits="userSpaceOnUse">
<stop stop-color="#333357"/>
<stop offset="1" stop-color="#6B6BBD" stop-opacity="0.49"/>
</linearGradient>
<linearGradient id="paint2_linear" x1="116.692" y1="142.334" x2="206.138" y2="195.483" gradientUnits="userSpaceOnUse">
<stop offset="0.0255459" stop-color="white"/>
<stop offset="1" stop-color="#E5E8E8"/>
</linearGradient>
<linearGradient id="paint3_linear" x1="134.811" y1="148.895" x2="127.845" y2="133.378" gradientUnits="userSpaceOnUse">
<stop stop-color="#8787DB" stop-opacity="0.41"/>
<stop offset="1" stop-color="#C5CACF" stop-opacity="0.44"/>
</linearGradient>
<linearGradient id="paint4_linear" x1="214.811" y1="189.895" x2="207.845" y2="174.378" gradientUnits="userSpaceOnUse">
<stop stop-color="#8787DB"/>
<stop offset="1" stop-color="#C5CACF" stop-opacity="0.44"/>
</linearGradient>
<linearGradient id="paint5_linear" x1="164.859" y1="93.9621" x2="143.031" y2="190.673" gradientUnits="userSpaceOnUse">
<stop stop-color="white" stop-opacity="0"/>
<stop offset="0.198345" stop-color="white" stop-opacity="0.72"/>
<stop offset="1" stop-color="white" stop-opacity="0"/>
</linearGradient>
<linearGradient id="paint6_linear" x1="174.982" y1="133.098" x2="158.633" y2="177.137" gradientUnits="userSpaceOnUse">
<stop offset="0.067573" stop-color="#FFF2F1"/>
<stop offset="0.390337" stop-color="#EE8279"/>
<stop offset="0.635919" stop-color="#DA4134"/>
<stop offset="1" stop-color="#A11409"/>
</linearGradient>
<clipPath id="clip0">
<rect width="312" height="312" fill="white"/>
</clipPath>
</defs>
</svg>
