<svg xmlns="http://www.w3.org/2000/svg" width="13" height="13" viewBox="0 0 13 13">
  <path
    d="m 2.6226137,7.5483827 -1.73646599,-1.67659 c -0.58287,-0.56277 -0.2895686,-1.54878 0.50612799,-1.70148 l 2.630348,-0.50477 c 0.31897,-0.06121 0.58834,-0.27352 0.72239,-0.56935 l 0.84414,-1.86293 c 0.35481,-0.78302702 1.46689,-0.78302802 1.8217,0 l 0.84414,1.86293 c 0.13405,0.29583 0.40342,0.50814 0.72239,0.56935 l 2.6303203,0.50477 c 0.7957,0.1527 1.089,1.13871 0.5062,1.70148 l -1.73651,1.67659 c -0.23632,0.22817 -0.34551,0.55786 -0.2921,0.88198 l 0.45461,2.7587403 c 0.1357,0.824 -0.7386003,1.4416 -1.4698203,1.0382 l -2.087,-1.1515 c -0.30069,-0.1659 -0.66547,-0.1659 -0.96616,0 l -2.087,1.1515 c -0.73122,0.4034 -1.60555,-0.2142 -1.46978,-1.0382 l 0.45457,-2.7587403 c 0.05341,-0.32412 -0.05578,-0.65381 -0.2921,-0.88198 z"
    stroke-width="0.8125"
  />
</svg>