<svg width="11" height="11" viewBox="0 0 11 11" fill="none" xmlns="http://www.w3.org/2000/svg">
<path fill-rule="evenodd" clip-rule="evenodd" d="M1.69208 4.23096C2.39016 4.23096 2.96131 4.80211 2.96131 5.50019C2.96131 6.19826 2.39016 6.76942 1.69208 6.76942C0.994005 6.76942 0.422852 6.19826 0.422852 5.50019C0.422852 4.80211 0.994005 4.23096 1.69208 4.23096ZM5.49977 4.23096C6.19785 4.23096 6.76901 4.80211 6.76901 5.50019C6.76901 6.19826 6.19785 6.76942 5.49977 6.76942C4.8017 6.76942 4.23054 6.19826 4.23054 5.50019C4.23054 4.80211 4.8017 4.23096 5.49977 4.23096ZM9.30747 4.23096C10.0055 4.23096 10.5767 4.80211 10.5767 5.50019C10.5767 6.19826 10.0055 6.76942 9.30747 6.76942C8.60939 6.76942 8.03824 6.19826 8.03824 5.50019C8.03824 4.80211 8.60939 4.23096 9.30747 4.23096Z" fill="#706E6B"/>
</svg>
