<svg width="16" height="16" viewBox="0 0 16 16" fill="none" xmlns="http://www.w3.org/2000/svg">
   <path class="line"
      d="m 12.00003,9.9998 h 0.5 c 0.55229,0 1,0.44771 1,1 v 0 c 0,0.55228 -0.44771,1 -1,1 L 11,11.99998 h 1 c 0.55228,0 0.99999,0.44771 1,1 v 0 c 0,0.55228 -0.44772,1 -1,1 h -1.5 l -3.52786,-6e-5 c -0.31049,0 -0.61672,-0.07229 -0.89443,-0.21115 L 4.5,12.99992 m 0,-6.5 c 0,-0.2761 -0.2239,-0.5 -0.5,-0.5 H 2 c -0.2761,0 -0.5,0.2239 -0.5,0.5 v 7 c 0,0.27614 0.2239,0.5 0.5,0.5 h 2 c 0.2761,0 0.5,-0.22386 0.5,-0.5 v -0.5 -6.5 h 0.9415 c 0.3471,10e-6 0.6694,-0.18 0.85145,-0.4755 l 1.19198,-1.9349 c 0.00989,-0.016 0.01512,-0.0345 0.01512,-0.0534 l -10e-6,-1.0591 c 0,-0.5396 0.43744,-0.977 0.97705,-0.977 v 0 c 0.32669,0 0.63296,0.165 0.81417,0.4368 v 0 c 0.45194,0.6779 0.61899,1.5119 0.45921,2.3108 L 9.5000098,5.998641 13.5,5.997341 c 0,0 1,-0.07687 1,0.9999998 0,0.983123 -1,1 -1,1 l -2.460584,0.00258 h 2 c 0.55228,0 1,0.44772 1,1 v 0 c 0,0.55228 -0.44772,1 -1,1 h -2"
      stroke="currentColor" stroke-linecap="round" stroke-linejoin="round" />
</svg>