<svg width="16" height="16" viewBox="0 0 16 16" fill="none" xmlns="http://www.w3.org/2000/svg">
<path class="line" d="M2 5.5H4C4.27614 5.5 4.5 5.72386 4.5 6V13C4.5 13.2761 4.27614 13.5 4 13.5H2C1.72386 13.5 1.5 13.2761 1.5 13V6C1.5 5.72386 1.72386 5.5 2 5.5Z" stroke="currentColor"/>
<path class="line" d="M12 13.5H6.97214C6.66165 13.5 6.35542 13.4277 6.07771 13.2889L4.5 12.5" stroke="currentColor"/>
<path class="fill" d="M9.50003 5C9.22389 5 9.00003 5.22386 9.00003 5.5C9.00003 5.77614 9.22389 6 9.50003 6V5ZM9.50003 6H13.5V5H9.50003V6ZM13.5 7H13V8H13.5V7ZM14 6.5C14 6.77614 13.7762 7 13.5 7V8C14.3285 8 15 7.32843 15 6.5H14ZM13.5 6C13.7762 6 14 6.22386 14 6.5H15C15 5.67157 14.3285 5 13.5 5V6Z" fill="currentColor"/>
<path class="line" d="M11 7.5H13C13.5523 7.5 14 7.94772 14 8.5V8.5C14 9.05228 13.5523 9.5 13 9.5H11" stroke="currentColor" stroke-linecap="round"/>
<path class="line" d="M12 9.49976H12.5C13.0523 9.49976 13.5 9.94747 13.5 10.4998V10.4998C13.5 11.052 13.0523 11.4998 12.5 11.4998H11" stroke="currentColor" stroke-linecap="round"/>
<path class="line" d="M11 11.5H12C12.5523 11.5 13 11.9477 13 12.5V12.5C13 13.0523 12.5523 13.5 12 13.5H10.5" stroke="currentColor" stroke-linecap="round"/>
<path class="line" d="M4.49999 5.99996C6.81105 5.99996 7.50004 4.75549 7.50004 3.56506C7.50004 3.16785 7.50004 2.8058 7.50003 2.49968C7.50003 1.94743 7.94769 1.50004 8.49995 1.49999V1.49999C9.05225 1.49995 9.50001 1.94767 9.50001 2.49997L9.50003 4.50001L9.49997 5.5" stroke="currentColor"/>
</svg>
