<svg
   width="14"
   height="14"
   viewBox="0 0 14 14"
   fill="none"
   version="1.1"
   xmlns="http://www.w3.org/2000/svg"
   xmlns:svg="http://www.w3.org/2000/svg">
  <path
     class="line"
     d="m 11.00003,8.49978 h 0.5 c 0.55229,0 1,0.44771 1,1 v 0 c 0,0.55228 -0.44771,1 -1,1 L 10,10.49996 h 1 c 0.55228,0 0.99999,0.44771 1,1 v 0 c 0,0.55228 -0.44772,1 -1,1 H 9.5 l -3.52786,-6e-5 c -0.31049,0 -0.61672,-0.07229 -0.89443,-0.21115 L 3.5,11.4999 m 0,-6.5 c 0,-0.2761 -0.2239,-0.5 -0.5,-0.5 H 1 c -0.2761,0 -0.5,0.2239 -0.5,0.5 v 7 c 0,0.27614 0.2239,0.5 0.5,0.5 h 2 c 0.2761,0 0.5,-0.22386 0.5,-0.5 v -0.5 -6.5 h 0.9415 c 0.3471,10e-6 0.6694,-0.18 0.85145,-0.4755 L 6.48493,2.5895 C 6.49482,2.5735 6.50005,2.555 6.50005,2.5361 L 6.50004,1.477 C 6.50004,0.9374 6.93748,0.5 7.47709,0.5 v 0 c 0.32669,0 0.63296,0.165 0.81417,0.4368 v 0 C 8.7432,1.6147 8.91025,2.4487 8.75047,3.2476 L 8.5000098,4.498621 12.5,4.497321 c 0,0 1,-0.07687 1,0.9999998 0,0.983123 -1,1 -1,1 l -2.460584,0.00258 h 2 c 0.55228,0 1,0.44772 1,1 v 0 c 0,0.55228 -0.44772,1 -1,1 h -2"
     stroke="currentColor"
     stroke-linecap="round"
     stroke-linejoin="round"
     id="path1" />
</svg>
