<svg width="16" height="16" viewBox="0 0 16 16" fill="none" xmlns="http://www.w3.org/2000/svg">
<path class="line" d="M14.5 10C14.5 10.2761 14.2761 10.5 14 10.5H12C11.7239 10.5 11.5 10.2761 11.5 10V3C11.5 2.72386 11.7239 2.5 12 2.5H14C14.2761 2.5 14.5 2.72386 14.5 3L14.5 10Z" stroke="#565B66"/>
<path class="line" d="M4.00001 2.5L9.02786 2.5C9.33835 2.5 9.64458 2.57229 9.92229 2.71115L11.5 3.5" stroke="#565B66"/>
<path class="fill" d="M6.49997 11C6.77611 11 6.99997 10.7761 6.99997 10.5C6.99997 10.2239 6.77611 10 6.49997 10V11ZM6.49997 10H2.49997V11H6.49997V10ZM2.49997 9H2.99997L2.99997 8H2.49997L2.49997 9ZM1.99997 9.5C1.99997 9.22386 2.22383 9 2.49997 9L2.49997 8C1.67154 8 0.999969 8.67157 0.999969 9.5H1.99997ZM2.49997 10C2.22383 10 1.99997 9.77614 1.99997 9.5H0.999969C0.999969 10.3284 1.67154 11 2.49997 11V10Z" fill="#565B66"/>
<path class="line" d="M5 8.5H3C2.44772 8.5 2 8.05228 2 7.5V7.5C2 6.94772 2.44772 6.5 3 6.5H5" stroke="#565B66" stroke-linecap="round"/>
<path class="line" d="M3.99997 6.50012H3.49997C2.94768 6.50012 2.49997 6.05241 2.49997 5.50012V5.50012C2.49997 4.94784 2.94768 4.50012 3.49997 4.50012H4.99997" stroke="#565B66" stroke-linecap="round"/>
<path class="line" d="M5 4.49994H4C3.44772 4.49994 3.00001 4.05223 3 3.49994V3.49994C3 2.94766 3.44772 2.49994 4 2.49994H5.5" stroke="#565B66" stroke-linecap="round"/>
<path class="line" d="M11.5 10L10.5585 10C10.2114 9.99999 9.8891 10.18 9.70705 10.4755L8.51507 12.4104C8.50518 12.4264 8.49995 12.4449 8.49995 12.4638L8.49996 13.5229C8.49996 14.0625 8.06252 14.4999 7.52291 14.4999V14.4999C7.19622 14.4999 6.88995 14.3349 6.70874 14.0631V14.0631C6.2568 13.3852 6.08975 12.5512 6.24953 11.7523L6.49998 10.5" stroke="#565B66"/>
</svg>
