<?xml version="1.0" encoding="utf-8"?>
<!-- Generator: Adobe Illustrator 27.8.1, SVG Export Plug-In . SVG Version: 6.00 Build 0)  -->
<svg version="1.1" id="Layer_4" xmlns="http://www.w3.org/2000/svg" xmlns:xlink="http://www.w3.org/1999/xlink" x="0px" y="0px"
	 viewBox="0 0 1002.7 275" style="enable-background:new 0 0 1002.7 275;" xml:space="preserve">
<style type="text/css">
	.st0{fill:white;}
	.st1{fill:#00ADFF;}
	.st2{fill:#FF413A;}
	.st3{fill:#00EFCD;}
	.st4{fill:#FFE300;}
	.st5{font-family:'Arial';}
	.st6{font-size:87.3046px;}
</style>
<g>
	<g>
		<g>
			<g>
				<path class="st0" d="M294.8,116.8c-6.4,6.8-6.4,6.8-6.4,6.8c-4.4-4.4-9.3-6.8-15.7-6.8c-11.3,0-19.7,8.9-19.7,21.3
					c0,12.5,8.5,21.3,19.7,21.3c6.4,0,12.1-2.8,16.1-6.8c6,6.8,6,6.8,6,6.8c-5.2,6-12.9,9.3-21.7,9.3c-18.5,0-30.6-13.3-30.6-30.6
					c0-17.7,12.1-31,30.6-31C281.9,107.1,289.5,110.7,294.8,116.8L294.8,116.8z"/>
				<path class="st0" d="M367.2,138.1c0,17.3-13.3,30.6-31,30.6c-18.1,0-31.4-13.3-31.4-30.6c0-17.7,13.3-31,31.4-31
					C353.9,107.1,367.2,120.4,367.2,138.1L367.2,138.1z M315.3,138.1c0,12.5,8.9,21.3,20.9,21.3c11.7,0,20.5-8.9,20.5-21.3
					c0-12.5-8.9-21.3-20.5-21.3C324.1,116.8,315.3,125.6,315.3,138.1L315.3,138.1z"/>
				<polygon class="st0" points="410.7,167.5 398.6,167.5 373.6,108.7 384.9,108.7 404.6,157.4 424.4,108.7 435.2,108.7 				"/>
				<path class="st0" d="M498.8,137.7c0,1.6,0,2.8,0,4c-46.3,0-46.3,0-46.3,0c1.2,12.1,9.7,18.1,19.7,18.1c7.2,0,13.3-2.4,18.5-6.8
					c5.2,6.8,5.2,6.8,5.2,6.8c-7.2,6.8-15.3,8.9-24.1,8.9c-17.7,0-30.2-12.1-30.2-30.6c0-18.1,12.5-31,29.4-31
					C487.1,107.1,498.8,120,498.8,137.7L498.8,137.7z M452.5,133.3c36.2,0,36.2,0,36.2,0c-1.2-10.1-8-16.9-17.7-16.9
					C460.6,116.4,454.1,123.2,452.5,133.3L452.5,133.3z"/>
				<path class="st0" d="M574.5,138.1c0,17.3-13.3,30.6-31,30.6c-18.1,0-31.4-13.3-31.4-30.6c0-17.7,13.3-31,31.4-31
					C561.2,107.1,574.5,120.4,574.5,138.1L574.5,138.1z M522.5,138.1c0,12.5,8.9,21.3,20.9,21.3c11.7,0,20.5-8.9,20.5-21.3
					c0-12.5-8.9-21.3-20.5-21.3C531.4,116.8,522.5,125.6,522.5,138.1L522.5,138.1z"/>
			</g>
			<g>
				<polyline class="st0" points="598.6,108.9 586.7,108.9 586.7,111.2 591.4,111.2 591.4,125.8 594,125.8 594,111.2 598.6,111.2 
					598.6,108.9 				"/>
				<polyline class="st0" points="618.9,108.9 616.3,108.9 611.5,119.4 606.5,108.9 603.9,108.9 603.9,125.8 606.5,125.8 
					606.5,114.5 610.5,122.8 612.4,122.8 616.3,114.5 616.3,125.8 618.9,125.8 618.9,108.9 				"/>
			</g>
			<g>
				<path class="st1" d="M193.5,88.7c-11.8-11.8-26.8-18.4-42.2-19.8c-1.9-0.2-2.9,2.1-1.6,3.4L174.5,97c0.2,0.2-0.1,0.4-0.2,0.3
					c-7.1-5.1-15.2-8.1-23.5-8.8c-1.3-0.1-2,1.5-1.1,2.4l16.8,16.8c0.2,0.2,0,0.4-0.2,0.3c-4.6-3.2-9.9-5-15.3-5.5
					c-0.9-0.1-1.4,1-0.8,1.6l28.6,28.6c0.6,0.6,1.7,0.1,1.6-0.8c-0.5-5.4-2.3-10.6-5.5-15.3c-0.1-0.2,0.1-0.4,0.3-0.2l16.2,16.2
					c0.9,0.9,2.5,0.2,2.4-1.1c-0.8-8.3-3.7-16.5-8.8-23.5c-0.1-0.2,0.1-0.4,0.3-0.2l24.7,24.7c1.3,1.4,3.6,0.3,3.4-1.6
					C211.9,115.5,205.3,100.5,193.5,88.7"/>
				<path class="st2" d="M96.7,88.7c11.8-11.8,26.8-18.4,42.2-19.8c1.9-0.2,2.9,2.1,1.6,3.4L115.8,97c-0.2,0.2,0.1,0.4,0.2,0.3
					c7.1-5.1,15.2-8.1,23.5-8.8c1.3-0.1,2,1.5,1.1,2.4l-16.8,16.8c-0.2,0.2,0,0.4,0.2,0.3c4.6-3.2,9.9-5,15.3-5.5
					c0.9-0.1,1.4,1,0.8,1.6l-28.6,28.6c-0.6,0.6-1.7,0.1-1.6-0.8c0.5-5.4,2.3-10.6,5.5-15.3c0.1-0.2-0.1-0.4-0.3-0.2l-16.2,16.2
					c-0.9,0.9-2.5,0.2-2.4-1.1c0.8-8.3,3.7-16.5,8.8-23.5c0.1-0.2-0.1-0.4-0.3-0.2l-24.7,24.7c-1.3,1.4-3.6,0.3-3.4-1.6
					C78.3,115.5,84.9,100.5,96.7,88.7"/>
				<path class="st3" d="M96.7,186.3c11.8,11.8,26.8,18.4,42.2,19.8c1.9,0.2,2.9-2.1,1.6-3.4L115.8,178c-0.2-0.2,0.1-0.4,0.2-0.3
					c7.1,5.1,15.2,8.1,23.5,8.8c1.3,0.1,2-1.5,1.1-2.4l-16.8-16.8c-0.2-0.2,0-0.4,0.2-0.3c4.6,3.2,9.9,5,15.3,5.5
					c0.9,0.1,1.4-1,0.8-1.6l-28.6-28.6c-0.6-0.6-1.7-0.1-1.6,0.8c0.5,5.4,2.3,10.6,5.5,15.3c0.1,0.2-0.1,0.4-0.3,0.2l-16.2-16.2
					c-0.9-0.9-2.5-0.2-2.4,1.1c0.8,8.3,3.7,16.5,8.8,23.5c0.1,0.2-0.1,0.4-0.3,0.2l-24.7-24.7c-1.3-1.4-3.6-0.3-3.4,1.6
					C78.3,159.5,84.9,174.5,96.7,186.3"/>
				<path class="st4" d="M193.5,186.3c-11.8,11.8-26.8,18.4-42.2,19.8c-1.9,0.2-2.9-2.1-1.6-3.4l24.7-24.7c0.2-0.2-0.1-0.4-0.2-0.3
					c-7.1,5.1-15.2,8.1-23.5,8.8c-1.3,0.1-2-1.5-1.1-2.4l16.8-16.8c0.2-0.2,0-0.4-0.2-0.3c-4.6,3.2-9.9,5-15.3,5.5
					c-0.9,0.1-1.4-1-0.8-1.6l28.6-28.6c0.6-0.6,1.7-0.1,1.6,0.8c-0.5,5.4-2.3,10.6-5.5,15.3c-0.1,0.2,0.1,0.4,0.3,0.2l16.2-16.2
					c0.9-0.9,2.5-0.2,2.4,1.1c-0.8,8.3-3.7,16.5-8.8,23.5c-0.1,0.2,0.1,0.4,0.3,0.2l24.7-24.7c1.3-1.4,3.6-0.3,3.4,1.6
					C211.9,159.5,205.3,174.5,193.5,186.3"/>
			</g>
		</g>
		<text transform="matrix(1 0 0 1 751.9026 168.3571)" class="st0 st5 st6">docs</text>
		<rect x="684.9" y="100.8" class="st2" width="4.2" height="85.9"/>
	</g>
</g>
</svg>
