<svg width="600" height="400" viewBox="0 0 600 400" fill="none" xmlns="http://www.w3.org/2000/svg">
    <path d="M83 302.5H533" stroke="#C2E8FF" stroke-width="3" stroke-linecap="round"/>
    <path d="M67 302.5H73" stroke="#C2E8FF" stroke-width="3" stroke-linecap="round"/>
    <path d="M110 302L154.5 266L188.5 293" stroke="#C2E8FF" stroke-width="3" stroke-linecap="round" stroke-linejoin="round"/>
    <path d="M178 283L188.5 275L220 302" stroke="#C2E8FF" stroke-width="3" stroke-linecap="round" stroke-linejoin="round"/>
    <path fill-rule="evenodd" clip-rule="evenodd" d="M118.807 280.439L112.77 302L124 292.106L120.733 280.439C120.584 279.907 120.032 279.597 119.501 279.746C119.164 279.84 118.901 280.103 118.807 280.439Z" fill="#C2E8FF"/>
    <path fill-rule="evenodd" clip-rule="evenodd" d="M470.421 240.454L484.759 289.943C485.067 291.004 484.456 292.113 483.395 292.421C483.214 292.473 483.027 292.5 482.838 292.5H454.162C453.057 292.5 452.162 291.604 452.162 290.5C452.162 290.312 452.188 290.124 452.241 289.943L466.579 240.454C466.886 239.393 467.996 238.782 469.057 239.09C469.715 239.281 470.23 239.796 470.421 240.454Z" fill="white"/>
    <path fill-rule="evenodd" clip-rule="evenodd" d="M468.5 238.824L485.5 292.5H451.5L468.5 238.824Z" stroke="#C2E8FF" stroke-width="3" stroke-linecap="round" stroke-linejoin="round"/>
    <path fill-rule="evenodd" clip-rule="evenodd" d="M468.5 243.195C468.5 281.545 468.5 301.147 468.5 302C468.5 301.147 468.5 281.545 468.5 243.195Z" stroke="#C2E8FF" stroke-width="3" stroke-linecap="round"/>
    <path fill-rule="evenodd" clip-rule="evenodd" d="M476.5 267.824C471.167 274.285 468.5 277.618 468.5 277.824C468.5 277.618 471.167 274.285 476.5 267.824Z" stroke="#C2E8FF" stroke-width="3" stroke-linecap="round" stroke-linejoin="round"/>
    <path fill-rule="evenodd" clip-rule="evenodd" d="M434.648 205.5L459.879 289.927C460.195 290.986 459.594 292.1 458.535 292.416C458.35 292.472 458.157 292.5 457.963 292.5H411.333C410.228 292.5 409.333 291.605 409.333 290.5C409.333 290.306 409.361 290.113 409.417 289.927L434.648 205.5Z" fill="white"/>
    <path fill-rule="evenodd" clip-rule="evenodd" d="M434.5 205.5L460.5 292.5H408.5L434.5 205.5Z" stroke="#C2E8FF" stroke-width="3" stroke-linecap="round" stroke-linejoin="round"/>
    <path fill-rule="evenodd" clip-rule="evenodd" d="M434.5 209.086C434.5 269.526 434.5 300.497 434.5 302C434.5 300.497 434.5 269.526 434.5 209.086Z" stroke="#C2E8FF" stroke-width="3" stroke-linecap="round"/>
    <path fill-rule="evenodd" clip-rule="evenodd" d="M423.648 247.5C430.981 254.579 434.648 258.245 434.648 258.5C434.648 258.245 430.981 254.579 423.648 247.5Z" stroke="#C2E8FF" stroke-width="3" stroke-linecap="round" stroke-linejoin="round"/>
    <path fill-rule="evenodd" clip-rule="evenodd" d="M435.648 273.5C444.981 262.579 449.648 257.245 449.648 257.5C449.648 257.245 444.981 262.579 435.648 273.5Z" stroke="#C2E8FF" stroke-width="3" stroke-linecap="round" stroke-linejoin="round"/>
    <path fill-rule="evenodd" clip-rule="evenodd" d="M280.315 223.389L285.184 234.019C298.96 230.853 306.089 229.16 306.571 228.94C306.898 228.791 309.035 227.258 312.531 223.389C313.624 222.179 315.537 219.798 318.27 216.244C320.297 212.662 321.722 209.87 322.544 207.869C323.365 205.867 324.537 202.335 326.057 197.272L312.531 194.316L280.315 223.389Z" fill="white"/>
    <path d="M259.302 196.318L251.171 204.45L259.656 212.935L267.788 204.803L259.302 196.318Z" fill="#C2E8FF" stroke="#8CD3F8" stroke-width="3" stroke-linecap="round" stroke-linejoin="round"/>
    <path fill-rule="evenodd" clip-rule="evenodd" d="M281.602 229.501C289.321 225.187 295.934 220.211 301.441 214.573C306.948 208.935 310.955 202.287 313.461 194.629C309.559 193.397 306.752 192.418 305.04 191.692C303.329 190.966 300.833 189.695 297.553 187.878L274.943 165.542L251.7 188.58L274.237 211.112C276.674 214.962 278.322 217.959 279.182 220.105C280.041 222.251 280.848 225.383 281.602 229.501Z" fill="#C2E8FF"/>
    <path fill-rule="evenodd" clip-rule="evenodd" d="M282.471 172.873L364.141 91.2017L377.158 104.218C358.469 116.836 344.648 127.764 335.696 137.002C332.523 140.175 327.585 145.113 320.881 151.817L291.148 181.55L282.471 172.873Z" fill="#C2E8FF"/>
    <path fill-rule="evenodd" clip-rule="evenodd" d="M251.547 188.523L274.884 165.185L291.891 182.193C295.522 186.424 300.081 189.66 305.569 191.9C311.056 194.14 317.829 195.871 325.886 197.093C322.712 208.77 317.766 217.968 311.048 224.686C304.33 231.405 295.132 236.351 283.455 239.525C281.845 229.777 280.221 222.897 278.583 218.886C276.945 214.874 273.602 210.422 268.554 205.53L251.547 188.523Z" stroke="#8CD3F8" stroke-width="3" stroke-linecap="round" stroke-linejoin="round"/>
    <path d="M259.302 196.318L251.171 204.45L259.656 212.935L267.788 204.803L259.302 196.318Z" stroke="#8CD3F8" stroke-width="3" stroke-linecap="round" stroke-linejoin="round"/>
    <path fill-rule="evenodd" clip-rule="evenodd" d="M282.47 172.873L364.141 91.2017L377.158 104.218C358.469 116.836 344.648 127.764 335.696 137.002C332.523 140.175 327.585 145.113 320.881 151.817L291.148 181.55L282.47 172.873Z" stroke="#8CD3F8" stroke-width="3" stroke-linecap="round" stroke-linejoin="round"/>
    <path fill-rule="evenodd" clip-rule="evenodd" d="M296.11 158.841L321.565 133.385L330.519 142.11L304.898 167.553L296.11 158.841Z" fill="#8CD3F8"/>
    <path fill-rule="evenodd" clip-rule="evenodd" d="M241.115 220.342V226.477L372.129 240.644V234.494L241.115 220.342Z" fill="white"/>
    <path fill-rule="evenodd" clip-rule="evenodd" d="M240.967 223.732L371.662 238.5V289.482L379.867 303.662L393.629 315.84H219.637L232.748 303.662L240.967 284.816V223.732Z" fill="#C2E8FF"/>
    <path fill-rule="evenodd" clip-rule="evenodd" d="M371.5 235V281C372.079 291.357 374.666 298.837 379.262 303.441C383.857 308.044 389.104 312.397 395 316.5H219C225.611 312.174 230.658 306.901 234.143 300.681C237.627 294.46 239.746 287.045 240.5 278.435V220L371.5 235Z" stroke="#8CD3F8" stroke-width="3" stroke-linecap="round" stroke-linejoin="round"/>
    <path fill-rule="evenodd" clip-rule="evenodd" d="M395.929 296.297L404 316.519H386L394.071 296.297C394.276 295.784 394.858 295.534 395.371 295.739C395.625 295.841 395.827 296.042 395.929 296.297Z" fill="#8CD3F8"/>
    <path fill-rule="evenodd" clip-rule="evenodd" d="M406.429 303.813L411.5 316.519H399.5L404.571 303.813C404.776 303.3 405.358 303.05 405.871 303.255C406.125 303.357 406.327 303.559 406.429 303.813Z" fill="#8CD3F8"/>
    <path fill-rule="evenodd" clip-rule="evenodd" d="M212.571 296.297L204.5 316.519H222.5L214.429 296.297C214.224 295.784 213.642 295.534 213.129 295.739C212.875 295.841 212.673 296.042 212.571 296.297Z" fill="#8CD3F8"/>
    <path fill-rule="evenodd" clip-rule="evenodd" d="M199.071 303.813L194 316.519H206L200.929 303.813C200.724 303.3 200.142 303.05 199.629 303.255C199.375 303.357 199.173 303.559 199.071 303.813Z" fill="#8CD3F8"/>
    <path d="M144 316.5H494" stroke="#8CD3F8" stroke-width="3" stroke-linecap="round" stroke-linejoin="round"/>
    <path d="M124 316.5H136" stroke="#8CD3F8" stroke-width="3" stroke-linecap="round" stroke-linejoin="round"/>
    <path d="M350.5 234V260C350.854 275.461 358.688 287.128 374 295" stroke="#8CD3F8" stroke-width="3" stroke-linecap="round" stroke-linejoin="round"/>
    <path d="M336.5 232V271C335.329 294.965 350.83 306.965 383.002 307" stroke="#8CD3F8" stroke-width="3" stroke-linecap="round" stroke-linejoin="round"/>
    <path d="M314.5 229V316" stroke="#8CD3F8" stroke-width="3" stroke-linecap="round" stroke-linejoin="round"/>
    <path d="M284.5 225V316" stroke="#8CD3F8" stroke-width="3" stroke-linecap="round" stroke-linejoin="round"/>
    <path d="M272.5 224V280C272.167 303.855 255.635 315.782 222.904 315.782" stroke="#8CD3F8" stroke-width="3" stroke-linecap="round" stroke-linejoin="round"/>
    <path d="M255.5 222V273.739C256.691 295.755 248.326 306.763 230.404 306.763" stroke="#8CD3F8" stroke-width="3" stroke-linecap="round" stroke-linejoin="round"/>
    <path d="M204 124.5H223C222.279 119.072 224.082 114.532 228.408 110.878C233.375 106.804 239.273 107.718 242.441 109.123C245.608 110.529 247.961 112.461 249.591 116.105C250.282 117.64 250.752 118.938 251 120" stroke="#C2E8FF" stroke-width="3" stroke-linecap="round"/>
    <path d="M243 127.5C244.056 123.846 246.223 121.457 249.501 120.333C254.418 118.647 259.08 120.892 260.942 123.152C262.805 125.411 263.395 127.226 263.747 129.12C263.981 130.383 264.065 131.843 264 133.5C268.142 133.331 270.919 134.165 272.332 136C274.04 138.193 274.215 140.817 273.593 142.75C272.971 144.682 270.895 147.5 267 147.5H188" stroke="#C2E8FF" stroke-width="3" stroke-linecap="round"/>
    <path d="M178 134.5H243" stroke="#C2E8FF" stroke-width="3" stroke-linecap="round"/>
    <path d="M160 134.5H168" stroke="#C2E8FF" stroke-width="3" stroke-linecap="round"/>
    <path d="M363 164.5H382C381.279 159.072 383.082 154.532 387.408 150.878C392.375 146.804 398.273 147.718 401.441 149.123C404.608 150.529 406.961 152.461 408.591 156.105C409.282 157.64 409.752 158.938 410 160" stroke="#C2E8FF" stroke-width="3" stroke-linecap="round"/>
    <path d="M402 167.5C403.056 163.846 405.223 161.457 408.501 160.333C413.418 158.647 418.08 160.892 419.942 163.152C421.805 165.411 422.395 167.226 422.747 169.12C422.981 170.383 423.065 171.843 423 173.5C427.142 173.331 429.919 174.165 431.332 176C433.04 178.193 433.215 180.817 432.593 182.75C431.971 184.682 429.895 187.5 426 187.5H347" stroke="#C2E8FF" stroke-width="3" stroke-linecap="round"/>
    <path d="M337 174.5H402" stroke="#C2E8FF" stroke-width="3" stroke-linecap="round"/>
    <path d="M319 174.5H327" stroke="#C2E8FF" stroke-width="3" stroke-linecap="round"/>
    <path fill-rule="evenodd" clip-rule="evenodd" d="M185.381 230.973L210.891 256.483C211.327 248.434 209.196 242.06 204.5 237.364C199.804 232.668 193.431 230.537 185.381 230.973Z" fill="white"/>
    <path fill-rule="evenodd" clip-rule="evenodd" d="M230.222 222.59L214.278 238.534C214.005 233.503 215.337 229.519 218.272 226.584C221.207 223.649 225.191 222.317 230.222 222.59Z" fill="white"/>
    <path fill-rule="evenodd" clip-rule="evenodd" d="M211.255 256.119L185.745 230.609C185.309 238.658 187.44 245.032 192.136 249.728C196.832 254.424 203.205 256.555 211.255 256.119Z" fill="#C2E8FF"/>
    <path fill-rule="evenodd" clip-rule="evenodd" d="M214.153 238.556L230.097 222.612C230.369 227.643 229.038 231.626 226.103 234.562C223.167 237.497 219.184 238.828 214.153 238.556Z" fill="#C2E8FF"/>
    <path d="M239 281C221.556 274.959 212.723 265.959 212.5 254V217" stroke="#8CD3F8" stroke-width="3" stroke-linecap="round" stroke-linejoin="round"/>
    <path fill-rule="evenodd" clip-rule="evenodd" d="M211.255 256.113C211.691 248.063 209.56 241.69 204.864 236.993C200.168 232.297 193.794 230.167 185.745 230.602C185.309 238.652 187.44 245.025 192.136 249.721C196.832 254.418 203.205 256.548 211.255 256.113Z" stroke="#8CD3F8" stroke-width="3" stroke-linecap="round" stroke-linejoin="round"/>
    <path fill-rule="evenodd" clip-rule="evenodd" d="M214.153 238.552C213.881 233.521 215.212 229.538 218.148 226.603C221.083 223.667 225.066 222.336 230.097 222.608C230.369 227.639 229.038 231.622 226.103 234.558C223.167 237.493 219.184 238.824 214.153 238.552Z" stroke="#8CD3F8" stroke-width="3" stroke-linecap="round" stroke-linejoin="round"/>
    </svg>
    